<?xml version="1.0" standalone="no"?>
<!DOCTYPE svg PUBLIC "-//W3C//DTD SVG 1.1//EN" "http://www.w3.org/Graphics/SVG/1.1/DTD/svg11.dtd" >
<svg xmlns="http://www.w3.org/2000/svg">
<metadata></metadata>
<defs>
<font id="babelsansbold" horiz-adv-x="935" >
<font-face units-per-em="2048" ascent="1638" descent="-410" />
<missing-glyph horiz-adv-x="454" />
<glyph horiz-adv-x="2048" />
<glyph horiz-adv-x="2048" />
<glyph horiz-adv-x="682" />
<glyph horiz-adv-x="559" d="M12 1491q6 -63 22.5 -117.5t47.5 -94.5t76 -62.5t108 -22.5t109.5 22.5t77 62.5t47 94.5t22.5 117.5h-139q-12 -78 -39 -110.5t-86 -32.5q-51 0 -76.5 34.5t-38.5 108.5h-131z" />
<glyph horiz-adv-x="559" d="M158 1202h217v242h-217v-242z" />
<glyph horiz-adv-x="559" d="M70 1343q0 -35 11 -71.5t35.5 -67t61.5 -50t88 -19.5q49 0 86 19.5t61.5 49t37 65t12.5 70.5q0 33 -12.5 70t-37 66.5t-61.5 49t-86 19.5q-47 0 -84 -19.5t-61.5 -48t-37.5 -64.5t-13 -69zM193 1339q0 33 19 62t58 29q37 0 57.5 -30t20.5 -63q0 -31 -20.5 -60.5 t-57.5 -29.5q-39 0 -58 31t-19 61z" />
<glyph unicode="&#xa;" horiz-adv-x="546" d="M8 1204h168l176 297h-241zM283 1202h174l170 299h-238z" />
<glyph horiz-adv-x="559" d="M121 -225q0 -41 11 -82t34.5 -74t60.5 -52.5t88 -19.5q47 0 98.5 20.5t96.5 49.5v160q-59 -39 -94 -53.5t-64 -14.5q-41 0 -63.5 35t-22.5 82q0 37 8.5 78t24.5 102h-147q-14 -66 -22.5 -122t-8.5 -109z" />
<glyph horiz-adv-x="559" d="M-6 1501l174 -289h221l184 289h-213l-75 -149l-80 149h-211z" />
<glyph unicode="&#xd;" horiz-adv-x="466" d="M133 -27h186v1125h-186v-1125z" />
<glyph horiz-adv-x="266" d="M-399 -51h180l876 1569h-178z" />
<glyph horiz-adv-x="841" d="M-8 938h125v-965h186v965h162v160h-162q0 16 -1 32.5t-1 32.5q0 31 2 60.5t13.5 52t32 37t57.5 14.5q16 0 37.5 -5t64.5 -17l22 176q-51 23 -90 30t-80 7q-92 0 -141 -41t-71.5 -104.5t-26.5 -137.5t-4 -137h-125v-160zM528 1268h187v223h-187v-223zM530 -27h185v1125 h-185v-1125z" />
<glyph horiz-adv-x="841" d="M-8 938h125v-965h186v965h162v160h-160q0 16 -1 31.5t-1 31.5q0 31 2 60.5t12.5 52t31 37t57.5 14.5q16 0 36.5 -4t59.5 -16l30 176q-53 23 -92 30t-80 7q-92 0 -141 -41t-71.5 -104.5t-26.5 -137.5t-4 -137h-125v-160zM528 -27h187v1518h-187v-1518z" />
<glyph horiz-adv-x="1292" d="M70 -27h503v217q-78 45 -130 115t-82.5 151t-44 168t-13.5 171q0 86 15.5 182t52.5 178t100.5 135t159.5 53t159.5 -54t101.5 -137t53.5 -180.5t15.5 -183.5t-14.5 -172t-47.5 -165.5t-86 -148.5t-129 -118v-211h498v185l-256 -4q129 127 182 287.5t53 340.5 q0 76 -11 162t-37 169t-65.5 159t-99 133t-137.5 91t-178 34q-152 0 -254.5 -72t-164.5 -182.5t-89 -241.5t-27 -250q0 -180 51.5 -341.5t184.5 -286.5l-264 4v-187z" />
<glyph horiz-adv-x="921" d="M-27 911h125v-938h193v938h293v-938h192v938h129v179h-932v-179z" />
<glyph horiz-adv-x="970" d="M100 -434h185v461q31 -35 71.5 -56.5t102.5 -21.5q66 0 108.5 21.5t75.5 60.5v-58h178v1125h-184v-500v-131q0 -78 -14.5 -151.5t-53.5 -127t-114 -53.5q-74 0 -110 54.5t-49 130t-13 153.5v127v498h-183v-1532z" />
<glyph horiz-adv-x="929" d="M-49 1434h983v153h-983v-153z" />
<glyph unicode=" "  horiz-adv-x="454" />
<glyph unicode="&#x09;" horiz-adv-x="454" />
<glyph unicode="&#xa0;" horiz-adv-x="454" />
<glyph unicode="!" horiz-adv-x="466" d="M117 1141q0 -72 4 -124t8 -124l31 -516h133l29 516q2 37 4 66.5t4 58.5t3 57.5t1 65.5v352h-217v-352zM121 -27h209v224h-209v-224z" />
<glyph unicode="&#x22;" horiz-adv-x="598" d="M53 1227q0 -66 13.5 -134.5t23.5 -134.5h131q4 43 10.5 77t10.5 67t8 63.5t4 57.5v270h-201v-266zM315 1227q0 -68 13.5 -135.5t23.5 -133.5h127q6 43 12.5 77t10.5 65q4 35 8 65.5t4 57.5v270h-199v-266z" />
<glyph unicode="#" d="M-10 391h131l-72 -442h166l68 428h202l-67 -428h164l69 428h244v188h-217l59 359h158v166h-131l70 428h-166l-68 -428h-203l66 428h-162l-68 -428h-243v-170h215l-58 -361h-157v-168zM311 561l58 357h202l-59 -357h-201z" />
<glyph unicode="$" d="M35 391q10 -182 85 -298t245 -148v-160h143v160q86 12 147.5 57t101.5 109.5t59.5 142.5t19.5 152q0 119 -47.5 223t-157.5 166q-29 16 -59.5 27.5t-63.5 21.5v510q49 -25 72.5 -80t33.5 -141l187 32q-16 152 -88 250t-211 123v72h-133v-72q-82 -14 -141.5 -53 t-98.5 -95.5t-57.5 -127t-18.5 -150.5q0 -160 79 -271.5t233 -152.5v-563q-74 27 -107 114t-45 193zM236 1128q0 78 33.5 142.5t99.5 93.5v-471q-133 66 -133 235zM504 123v516q78 -39 111.5 -92.5t33.5 -151.5q0 -41 -9 -84t-26.5 -80.5t-45 -66.5t-64.5 -41z" />
<glyph unicode="%" horiz-adv-x="1495" d="M63 1120q0 -55 10.5 -126.5t39 -136t81 -108.5t138.5 -44q82 0 134 43t83 105t42 132t11 125q0 57 -11 128t-41 133.5t-83 104.5t-137 42q-80 0 -132.5 -42t-82 -102.5t-41 -129t-11.5 -124.5zM236 1102q0 27 1 71t9 87t28.5 73.5t59.5 30.5t60.5 -28.5t30.5 -67.5 t10 -82t1 -70t-1 -71t-10 -85.5t-30.5 -72.5t-60.5 -31q-37 0 -57.5 28.5t-29.5 68.5t-10 81t-1 68zM303 -68h170l645 1586h-164zM813 336q0 -55 10.5 -127t39 -136.5t80.5 -108.5t136 -44t137.5 42t84 104.5t42 133.5t11.5 126q0 57 -11.5 127.5t-42 133t-84 104.5 t-137.5 42q-82 0 -133 -42t-80.5 -102.5t-41 -129t-11.5 -123.5zM983 317q0 27 1 71t10.5 87t29.5 74t59 31t60.5 -29t31 -68t10.5 -81.5t1 -69.5q0 -29 -1 -73t-10.5 -85t-30 -71.5t-61.5 -30.5q-39 0 -59 28.5t-29.5 68.5t-10.5 81t-1 67z" />
<glyph unicode="&#x26;" horiz-adv-x="1120" d="M47 399q0 -84 25.5 -164.5t76 -144t124 -102.5t167.5 -39q109 0 191 53t143 131q35 -47 76 -95t102 -95l111 168q-59 55 -102 109t-78 110q33 66 54 141.5t38 165.5l-184 47q-10 -49 -16.5 -82t-16.5 -61l-174 280q88 63 147.5 152.5t59.5 208.5q0 61 -18.5 120.5 t-55.5 107.5t-91.5 78t-125.5 30q-74 0 -131.5 -33t-95 -85t-58 -115.5t-20.5 -127.5q0 -90 35.5 -169t82.5 -148q-117 -74 -191.5 -182.5t-74.5 -258.5zM244 403q0 92 47 159t117 126l245 -385q-16 -31 -39.5 -60.5t-52.5 -53t-60.5 -38t-64.5 -14.5q-43 0 -78.5 24.5 t-61.5 63.5t-39 86t-13 92zM381 1196q0 59 29.5 105.5t83.5 46.5q55 0 82.5 -50.5t27.5 -109.5q0 -74 -30.5 -122t-86.5 -95q-35 47 -70.5 105.5t-35.5 119.5z" />
<glyph unicode="'" horiz-adv-x="323" d="M51 1221q0 -55 11.5 -122t19.5 -141h135q4 43 10 77t10.5 67t8.5 63.5t4 57.5v270h-199v-272z" />
<glyph unicode="(" horiz-adv-x="559" d="M72 530q0 -256 75.5 -509.5t217.5 -477.5h151q-125 252 -188.5 495t-63.5 492q0 135 15.5 255t46 238t77 238.5t107.5 256.5h-145q-141 -238 -217 -477.5t-76 -510.5z" />
<glyph unicode=")" horiz-adv-x="559" d="M55 -457h160q137 225 212 478t75 509q0 268 -76 509t-215 479h-150q61 -135 107.5 -256t78.5 -239t47 -237.5t15 -255.5q0 -250 -64.5 -492.5t-189.5 -494.5z" />
<glyph unicode="*" horiz-adv-x="653" d="M27 1196q59 -23 104 -37t86 -24q-31 -41 -59.5 -85t-59.5 -92l121 -108q33 53 52.5 94t35.5 78q18 -39 40 -81t52 -95l127 112q-35 53 -64.5 96.5t-60.5 80.5q43 10 88.5 24t98.5 39l-39 156q-59 -25 -99 -43.5t-75 -38.5q4 55 8 114.5t6 131.5h-160q2 -74 5.5 -133.5 t7.5 -112.5q-37 20 -79 39.5t-95 42.5z" />
<glyph unicode="+" horiz-adv-x="983" d="M63 629h316v-402h178v402h315v188h-315v400h-178v-400h-316v-188z" />
<glyph unicode="," horiz-adv-x="466" d="M102 -209l54 -108q53 29 85.5 63.5t51 72.5t25 80t6.5 85v213h-203v-224h80q-4 -53 -22.5 -101t-76.5 -81z" />
<glyph unicode="-" horiz-adv-x="559" d="M-25 541h482v200h-482v-200z" />
<glyph unicode="." horiz-adv-x="466" d="M123 -27h205v224h-205v-224z" />
<glyph unicode="/" horiz-adv-x="464" d="M-33 -51h162l346 1569h-160z" />
<glyph unicode="0" d="M41 723q0 -59 3 -139t15.5 -166t38 -170t69.5 -150.5t111.5 -107.5t161.5 -41t161 41t111 107.5t69.5 150.5t39 170t16.5 167t3 138t-3 138t-16.5 167t-39 170t-69.5 151.5t-110.5 108.5t-161.5 41q-94 0 -160.5 -41t-110.5 -107.5t-69.5 -151.5t-39 -171t-16.5 -166 t-3 -139zM231 723q0 37 1 96.5t6.5 126t17.5 134t34.5 121.5t58.5 89t89 35q66 0 106 -49t62.5 -117.5t30.5 -144.5t12 -129q2 -49 2 -92v-70q0 -37 -1 -96.5t-6 -127t-17.5 -135t-36 -122t-60 -89t-90.5 -34.5q-53 0 -90 34.5t-59.5 89t-34.5 122t-17.5 135t-6.5 127 t-1 96.5z" />
<glyph unicode="1" d="M150 905q86 37 155.5 84t122.5 96v-1112h193v1526h-129q-47 -123 -139.5 -221t-202.5 -166v-207z" />
<glyph unicode="2" d="M18 -27h818v199h-560q41 68 95.5 126t107.5 116q61 68 125 139.5t115 150t83 165.5t32 188q0 84 -24 163.5t-72 141t-119.5 99.5t-165.5 38q-100 0 -172 -34.5t-120 -95t-73 -142.5t-31 -178l187 -25q0 131 48 217t157 86q45 0 81.5 -18.5t61 -51t38 -74.5t13.5 -89 q0 -55 -17.5 -108.5t-45 -101.5t-62.5 -93.5t-69 -83.5q-72 -80 -148 -160t-138.5 -168t-103.5 -187.5t-41 -218.5z" />
<glyph unicode="3" d="M45 377q6 -88 35 -167t77 -137.5t116.5 -92t158.5 -33.5q100 0 176 43t127 110.5t77 153.5t26 172q0 51 -9.5 105.5t-31 102.5t-57 89t-87.5 65q68 55 99.5 133t31.5 162q0 76 -23.5 150t-68.5 133t-111.5 96t-152.5 37q-84 0 -147.5 -30.5t-107.5 -84t-72.5 -125 t-41.5 -151.5l181 -41q16 113 57 185.5t131 72.5q41 0 71.5 -19.5t52 -50t32 -70.5t10.5 -81q0 -115 -60.5 -178.5t-195.5 -63.5l-4 -176q45 4 69.5 6t47.5 2q49 0 86.5 -24.5t62.5 -63.5t37 -89t12 -99q0 -53 -14 -105.5t-42 -95.5t-68 -69.5t-93 -26.5q-49 0 -84 22.5 t-58.5 61.5t-38.5 90t-24 111z" />
<glyph unicode="4" d="M-6 342h504v-369h184v369h156v184h-156v967h-147l-541 -971v-180zM193 530l301 547v-547h-301z" />
<glyph unicode="5" d="M45 379q6 -90 33.5 -169t77 -137.5t119 -91t159.5 -32.5q111 0 188.5 51t128 131t74 175t23.5 181q0 80 -21.5 168t-68.5 161t-120 120t-175 47q-49 0 -95 -14.5t-87 -38.5l55 354h461v189h-611l-120 -785l174 -29q74 139 196 140q61 0 103.5 -29t68 -76t37.5 -105.5 t12 -115.5t-12 -119.5t-38.5 -114t-69.5 -85t-103 -33.5q-47 0 -82 21.5t-59.5 59.5t-38.5 88t-23 107z" />
<glyph unicode="6" d="M35 686q0 -63 5 -142t19.5 -161t43 -160t75.5 -139t115.5 -98t165.5 -37q104 0 177 51t119 128t66.5 168t20.5 171q0 76 -19.5 163t-63.5 160.5t-114 123t-170 49.5q-78 0 -140.5 -35t-109.5 -88q2 74 14.5 158.5t39 157.5t70.5 121t114 48q80 0 117.5 -65.5t54.5 -165.5 l182 16q-8 82 -32.5 152.5t-67.5 123t-105.5 83t-144.5 30.5q-100 0 -172 -43t-120 -111.5t-75.5 -156.5t-42 -178t-18.5 -175t-4 -149zM242 467q0 53 12 108.5t38.5 100.5t65.5 73.5t95 28.5q55 0 94 -29.5t63.5 -76.5t34.5 -103.5t10 -111.5q0 -53 -10 -112.5t-33.5 -109 t-61.5 -82t-91 -32.5q-57 0 -98.5 33.5t-68 84t-38.5 112t-12 116.5z" />
<glyph unicode="7" d="M53 1282h555q-86 -131 -156.5 -291t-123 -333t-82 -348t-31.5 -337h184q8 166 43 346.5t91.5 354.5t133.5 335.5t173 290.5v175h-787v-193z" />
<glyph unicode="8" d="M45 424q0 -86 23.5 -171t72.5 -152.5t124 -109.5t177 -42q100 0 175 41t124.5 107.5t74 150.5t24.5 170q0 115 -44 217t-147 162q78 47 112 122.5t34 167.5q0 76 -22.5 151t-66.5 132t-111 93t-155 36t-153.5 -34.5t-108.5 -92t-64.5 -130.5t-21.5 -148q0 -92 34 -169 t112 -126q-53 -29 -90 -70t-59.5 -90t-33 -104.5t-10.5 -110.5zM229 414q0 51 13.5 103t39 92t64.5 65.5t92 25.5t94 -25.5t69 -67.5t41 -94t13 -105t-13 -104.5t-40 -91.5t-66.5 -65.5t-93.5 -25.5q-53 0 -93 25.5t-66.5 67.5t-40 94t-13.5 106zM276 1108q0 41 11.5 80 t32 69.5t51 49t71.5 18.5t72 -20.5t52.5 -52t32.5 -72.5t11 -82t-11 -81t-31.5 -71t-52.5 -49t-71 -18q-43 0 -73.5 19.5t-52 51t-32 73.5t-10.5 85z" />
<glyph unicode="9" d="M43 985q0 -78 19.5 -165t62.5 -160.5t112.5 -123t172.5 -49.5q76 0 138 34t107 87q-4 -74 -15 -158.5t-38 -157.5t-73 -121t-117 -48q-84 0 -119 62.5t-51 166.5l-179 -20q8 -82 33 -151.5t68 -121t104.5 -81t143.5 -29.5q100 0 171.5 43t120 111.5t76 156.5t42 178 t18.5 176.5t4 149.5q0 78 -4 168t-23.5 178t-59.5 168t-110 137q-47 41 -102.5 62.5t-118.5 21.5q-104 0 -178 -49t-119 -125t-65.5 -167t-20.5 -173zM229 979q0 55 12.5 115.5t39 113t67.5 86t96 33.5t93 -32.5t62 -82t35 -108t11 -111.5q0 -55 -10 -112.5t-35 -104.5 t-63.5 -76.5t-96.5 -29.5q-55 0 -94 27.5t-65.5 72.5t-39 100.5t-12.5 108.5z" />
<glyph unicode=":" horiz-adv-x="466" d="M123 -27h203v224h-203v-224zM123 864h203v226h-203v-226z" />
<glyph unicode=";" horiz-adv-x="466" d="M102 -209l54 -108q53 29 85.5 63.5t51 72.5t25 80t6.5 85v213h-203v-224h78q-4 -55 -21.5 -102t-75.5 -80zM121 864h205v226h-205v-226z" />
<glyph unicode="&#x3c;" horiz-adv-x="983" d="M63 645l809 -436v201l-602 313l596 307v207l-803 -428v-164z" />
<glyph unicode="=" horiz-adv-x="983" d="M63 408h809v186h-809v-186zM63 852h809v188h-809v-188z" />
<glyph unicode="&#x3e;" horiz-adv-x="983" d="M66 207l804 434v168l-804 428v-203l600 -311l-600 -313v-203z" />
<glyph unicode="?" d="M47 1077l186 -28q8 61 22.5 114.5t39 93t60.5 63t89 23.5q45 0 82 -22.5t62.5 -59t40 -81.5t14.5 -90q0 -53 -20.5 -99.5t-51 -87.5t-65.5 -80t-64 -78q-35 -47 -54 -88t-28.5 -84t-11.5 -91t-2 -109h182q0 76 4.5 122t17.5 79.5t37.5 64.5t65.5 76q37 43 70 85t56.5 88 t36.5 98.5t13 113.5q0 86 -26.5 161.5t-76.5 132t-122 90.5t-164 34q-96 0 -166.5 -34t-117.5 -94.5t-74 -140.5t-35 -172zM336 -27h203v224h-203v-224z" />
<glyph unicode="@" horiz-adv-x="1710" d="M59 469q0 -190 49.5 -359t153 -295t264 -199t381.5 -73q-4 39 -4 90t8 86q-184 0 -314 59.5t-214 162t-123 243t-39 301.5q0 147 38 301t116 279t197.5 204t285.5 79q129 0 229.5 -53.5t171 -142.5t107.5 -202.5t37 -236.5q0 -66 -12.5 -136.5t-36 -136t-60.5 -124 t-86 -101.5q-16 -16 -42.5 -36.5t-51.5 -20.5q-10 0 -19.5 14t-9.5 39q0 47 9.5 91t17.5 89l113 690h-183l-18 -106q-39 55 -94.5 95t-130.5 40q-74 0 -135.5 -34t-110.5 -90t-85 -127t-59.5 -144.5t-36 -144t-12.5 -124.5q0 -61 15.5 -143t52.5 -155.5t96.5 -125 t149.5 -51.5q70 0 127 38t98 87q14 -57 52 -92t116 -35q55 0 104.5 18.5t90.5 49.5t74.5 68.5t62.5 76.5q84 119 124 254.5t40 276.5q0 154 -45 298t-133.5 257.5t-219.5 182.5t-301 69q-143 0 -257.5 -45t-205 -122t-155 -180.5t-106.5 -220t-61.5 -240.5t-19.5 -243z M551 426q0 61 15.5 149.5t47 168t79.5 137t112 57.5q45 0 75.5 -26.5t49 -67.5t27 -91.5t8.5 -95.5q0 -59 -11.5 -129.5t-34 -138t-57.5 -124t-84 -89.5q-20 -14 -40.5 -22.5t-41.5 -8.5q-43 0 -71.5 30t-45 73t-22.5 92t-6 86z" />
<glyph unicode="A" horiz-adv-x="1126" d="M-37 -27h213l127 449h449l135 -449h225l-494 1520h-194zM362 614q43 141 86.5 281.5t73.5 288.5q37 -145 81 -287t85 -283h-326z" />
<glyph unicode="B" horiz-adv-x="1120" d="M90 -27h463q217 0 341 113t124 338q0 111 -48 209t-151 151q66 57 99.5 138.5t33.5 167.5q0 190 -109.5 296.5t-295.5 106.5h-457v-1520zM287 166v500h245q137 0 211 -55.5t74 -194.5q0 -135 -65.5 -192.5t-196.5 -57.5h-268zM287 862v436h211q68 0 117 -8t80.5 -32.5 t48 -68.5t16.5 -114q0 -127 -59.5 -170t-184.5 -43h-229z" />
<glyph unicode="C" horiz-adv-x="1214" d="M55 743q0 -86 10.5 -179t36 -181t67.5 -167t104.5 -138.5t148.5 -94t196 -34.5q115 0 200 43t146.5 115.5t99 167t60.5 198.5l-190 62q-14 -82 -40 -154t-64.5 -125t-93 -84t-128.5 -31q-111 0 -179.5 58.5t-107 148.5t-53 195.5t-14.5 201.5t15.5 199t55.5 188 t109.5 140t177.5 55q63 0 109.5 -21.5t81.5 -61.5t58.5 -95t41.5 -125l193 53q-25 98 -66 179t-101.5 139.5t-138 90.5t-176.5 32q-106 0 -189 -34t-145.5 -93.5t-105.5 -136t-69.5 -162.5t-38 -176.5t-11.5 -172.5z" />
<glyph unicode="D" horiz-adv-x="1214" d="M98 -27h441q86 0 175 21.5t160 83.5q68 57 111 138t67.5 172t35 183t10.5 170q0 94 -14.5 208t-55.5 218.5t-112.5 186.5t-184.5 116q-51 16 -107.5 19.5t-105.5 3.5h-420v-1520zM297 168v1130h219q47 0 99.5 -5t91.5 -25q61 -31 99 -91.5t59.5 -134t28.5 -152.5t7 -147 q0 -72 -7 -155.5t-29.5 -161.5t-63.5 -140.5t-109 -90.5q-39 -16 -83 -21.5t-89 -5.5h-223z" />
<glyph unicode="E" horiz-adv-x="1120" d="M100 -27h908v193h-711v496h592v192h-592v446h684v193h-881v-1520z" />
<glyph unicode="F" horiz-adv-x="1028" d="M106 -27h197v682h543v193h-543v452h629v193h-826v-1520z" />
<glyph unicode="G" horiz-adv-x="1306" d="M59 725q0 -139 33 -277.5t106.5 -249t190.5 -180t283 -69.5q84 0 160.5 38t146.5 79v-93h195v783l-539 -2v-189h342v-276q-29 -31 -66 -55.5t-78.5 -43t-86 -28.5t-84.5 -10q-117 0 -195 52t-124 136t-65.5 188.5t-19.5 208.5t19.5 209t65.5 190t123 137t193 52 q74 0 126.5 -23.5t90 -68.5t63.5 -108.5t44 -143.5l174 59q-23 106 -60.5 194.5t-98 152t-144.5 97.5t-197 34q-168 0 -282.5 -73t-184 -186.5t-100.5 -255t-31 -278.5z" />
<glyph unicode="H" horiz-adv-x="1214" d="M102 -27h197v709h559v-709h197v1520h-197v-619h-559v619h-197v-1520z" />
<glyph unicode="I" horiz-adv-x="466" d="M127 -27h197v1520h-197v-1520z" />
<glyph unicode="J" horiz-adv-x="841" d="M20 367q0 -78 15.5 -154t53.5 -134.5t101.5 -94t161.5 -35.5q117 0 185.5 51t105.5 128t47 168t10 171v1026h-196v-1063q0 -41 -2 -91t-15.5 -93t-45 -73t-89.5 -30q-47 0 -75.5 22.5t-45 62.5t-22.5 93.5t-8 112.5l-181 -31v-36z" />
<glyph unicode="K" horiz-adv-x="1120" d="M92 -27h201v527l166 194l401 -721h250l-514 897l489 623h-227l-569 -709v709h-197v-1520z" />
<glyph unicode="L" d="M92 -27h768v193h-571v1327h-197v-1520z" />
<glyph unicode="M" horiz-adv-x="1400" d="M90 -27h197v1076l288 -1076h183l282 1037v-1037h201v1520h-246q-37 -133 -83 -298t-91 -327.5t-85 -303t-64 -224.5q-16 55 -39 138t-49.5 181.5t-56 208t-59.5 219t-57.5 214t-50.5 192.5h-270v-1520z" />
<glyph unicode="N" horiz-adv-x="1214" d="M96 -27h193v1084l571 -1084h193v1520h-193v-1083l-573 1083h-191v-1520z" />
<glyph unicode="O" horiz-adv-x="1306" d="M51 715q0 -125 32 -260.5t100.5 -248t178 -185t263.5 -72.5q160 0 270.5 74.5t178 190.5t98 253t30.5 264q0 84 -13 175t-41 178t-73 167t-108.5 139.5t-148.5 94.5t-191 35q-166 0 -277.5 -78t-177.5 -197t-93.5 -260t-27.5 -270zM250 709q0 57 4 123.5t16.5 131t35 123 t56.5 101.5q53 66 118 102.5t149 36.5q106 0 178 -57.5t115 -146.5t61 -194.5t18 -199.5q0 -96 -18 -200.5t-61 -191.5t-116 -143.5t-181 -56.5q-104 0 -176 54.5t-116 138.5t-63.5 184t-19.5 195z" />
<glyph unicode="P" horiz-adv-x="1120" d="M98 -27h197v609h219q45 0 103.5 5t116 20.5t108.5 42t82 69.5q53 72 76.5 157t23.5 171q0 53 -8 105t-29 103q-31 80 -75 127.5t-99 72t-120.5 31.5t-137.5 7h-457v-1520zM297 782v516h274q29 0 69 -1t67 -11q33 -12 55 -37.5t36.5 -58.5t20.5 -71t6 -75 q0 -129 -80.5 -195.5t-220.5 -66.5h-227z" />
<glyph unicode="Q" horiz-adv-x="1306" d="M51 715q0 -125 32 -260.5t100.5 -248t178 -185t263.5 -72.5q160 0 270.5 74.5t178 190.5t98 253t30.5 264q0 84 -13 175t-41 178t-73 167t-108.5 139.5t-148.5 94.5t-191 35q-166 0 -277.5 -78t-177.5 -197t-93.5 -260t-27.5 -270zM250 709q0 57 4 123.5t16.5 131t35 123 t56.5 101.5q53 66 118 102.5t149 36.5q106 0 178 -57.5t115 -146.5t61 -194.5t18 -199.5q0 -96 -18 -200.5t-61 -191.5t-116 -143.5t-181 -56.5q-104 0 -176 54.5t-116 138.5t-63.5 184t-19.5 195zM557 -172l430 -217l92 178l-430 217z" />
<glyph unicode="R" horiz-adv-x="1214" d="M100 -27h197v668h133q49 0 79 -7t64 -36q23 -18 56 -66.5t69.5 -111t74.5 -133t72 -133t58.5 -111.5t34.5 -70h242l-222 439q-37 72 -80.5 136t-109.5 118q143 39 220 142t77 263q0 125 -51 229q-31 63 -72 101.5t-89 59t-103.5 26.5t-116.5 6h-533v-1520zM299 831v478 h344q113 0 170 -61.5t57 -174.5q0 -129 -68.5 -185.5t-195.5 -56.5h-307z" />
<glyph unicode="S" horiz-adv-x="1120" d="M49 467q4 -256 141.5 -387t368.5 -131q100 0 182 34.5t141.5 96t92.5 146t33 182.5q0 113 -34 188.5t-89.5 125.5t-124 79.5t-137.5 52.5q-35 10 -68 21.5t-66 21.5q-41 14 -79.5 30.5t-68.5 41t-47.5 58.5t-17.5 83q0 109 68 159t174 50q127 0 187.5 -66.5t72.5 -214.5 l187 19q-6 223 -128 342t-325 119q-94 0 -172 -31t-134 -87.5t-87 -135t-31 -172.5q0 -109 34 -179.5t89 -117.5t123.5 -76t136.5 -49q35 -10 67.5 -20.5t65.5 -20.5q45 -16 84 -36t67.5 -47.5t45 -65.5t16.5 -91q0 -117 -74.5 -179.5t-191.5 -62.5q-152 0 -230.5 86 t-93.5 252z" />
<glyph unicode="T" horiz-adv-x="1028" d="M12 1300h381v-1327h197v1327h383v193h-961v-193z" />
<glyph unicode="U" horiz-adv-x="1214" d="M100 618q0 -121 15.5 -239.5t64.5 -214.5t143.5 -155.5t254.5 -59.5q156 0 250 60.5t144 157.5t65.5 215.5t15.5 235.5v875h-197v-893q0 -94 -7 -176t-37 -143.5t-88 -97.5t-161 -36q-94 0 -147.5 39t-80 103.5t-33.5 145.5t-7 165v893h-195v-875z" />
<glyph unicode="V" horiz-adv-x="1120" d="M-31 1493l465 -1520h191l469 1520h-207l-316 -1081l-20 -74t-21 -74l-36 142l-310 1087h-215z" />
<glyph unicode="W" horiz-adv-x="1587" d="M-16 1493l317 -1520h197q25 113 57.5 256.5t68 298t69.5 314t63 307.5q66 -293 128 -585t128 -591h188l330 1520h-203q-55 -291 -112.5 -564.5t-104.5 -547.5q-43 276 -108.5 550.5t-131.5 561.5h-221q-66 -297 -130 -576.5t-122 -560.5q-45 281 -100 561.5t-109 575.5 h-204z" />
<glyph unicode="X" horiz-adv-x="1122" d="M-41 -27h244q86 154 171 298.5t158 291.5q74 -147 157 -291.5t169 -298.5h246l-453 801l422 719h-217q-84 -137 -165 -266t-150 -262q-63 133 -140 262t-153 266h-234l410 -729z" />
<glyph unicode="Y" horiz-adv-x="1120" d="M-41 1493l465 -877v-643h199v643l477 877h-228q-90 -174 -176 -334t-164 -325q-78 166 -162.5 326.5t-174.5 332.5h-236z" />
<glyph unicode="Z" horiz-adv-x="1028" d="M6 -27h959v199h-738q63 88 131 188.5t134.5 205t132 209t125 198.5t109.5 175t87 138v207h-872v-195h645q-31 -41 -58.5 -81.5t-56.5 -83.5l-598 -947v-213z" />
<glyph unicode="[" horiz-adv-x="466" d="M88 -434h356v168h-170v1591h170v168h-356v-1927z" />
<glyph unicode="\" horiz-adv-x="464" d="M-33 1518l348 -1569h160l-346 1569h-162z" />
<glyph unicode="]" horiz-adv-x="466" d="M6 -266v-168h356v1927h-356v-168h170v-1591h-170z" />
<glyph unicode="^" horiz-adv-x="788" d="M18 694h199l158 506l166 -500h192l-287 818h-141z" />
<glyph unicode="_" d="M-49 -340v-154h983v154h-983z" />
<glyph unicode="`" horiz-adv-x="561" d="M27 1501l192 -299h170l-115 299h-247z" />
<glyph unicode="a" d="M33 276q0 -143 81 -234t230 -91q92 0 160.5 31.5t128.5 87.5q4 -20 11 -44t18 -53h200q-31 74 -44 165q-13 92 -16 188q-2 58 -2 114q0 38 1 76q2 94 2 174q0 90 -10.5 169t-45 137.5t-102 92t-184.5 33.5q-166 0 -266.5 -78.5t-131.5 -267.5l177 -31q12 57 26.5 96.5 t36 63t54 33.5t81.5 10q102 0 139 -62.5t37 -164.5v-35q-72 -29 -152.5 -39t-157.5 -28.5t-140.5 -59.5t-102.5 -131q-16 -37 -22 -76t-6 -76zM229 274q0 76 37 109t99 51q63 18 126.5 29.5t122.5 38.5v-31q0 -68 -11 -131.5t-38.5 -112.5t-74 -78.5t-117.5 -29.5 q-70 0 -107 42t-37 113z" />
<glyph unicode="b" d="M80 -27h176v76q37 -43 88 -70.5t119 -27.5q78 0 137 29.5t102 79t72 111.5t45.5 129t23.5 132.5t7 120.5q0 80 -17.5 179t-60.5 186.5t-116.5 145.5t-186.5 58q-63 0 -113.5 -25.5t-89.5 -66.5v463h-186v-1520zM256 545q0 57 9 127.5t33 132t63.5 103.5t101.5 42 q66 0 105.5 -45t61 -108.5t28 -135t6.5 -122.5q0 -57 -9.5 -130t-32 -136.5t-63.5 -106.5t-102 -43q-70 0 -110 45t-60.5 110.5t-25.5 138t-5 128.5z" />
<glyph unicode="c" horiz-adv-x="843" d="M45 530q0 -86 16.5 -187t60.5 -188t122 -145.5t198 -58.5q86 0 151.5 32.5t111 89t73 131t37.5 156.5l-180 27q-6 -57 -19.5 -105.5t-36 -84t-56.5 -56t-79 -20.5q-68 0 -109.5 42t-63 104.5t-28.5 136t-7 135.5q0 61 8 133.5t30.5 135t65.5 103.5t111 41 q74 0 113.5 -61.5t58.5 -157.5l176 31q-27 162 -113 260t-244 98q-123 0 -200.5 -59t-120.5 -148.5t-59.5 -193t-16.5 -191.5z" />
<glyph unicode="d" d="M29 535q0 -80 17 -181.5t61.5 -190.5t118 -150.5t188.5 -61.5q66 0 117 24.5t90 69.5v-72h180v1520h-185v-465q-39 41 -90 67.5t-116 26.5q-117 0 -191 -61.5t-117 -151.5t-58 -191.5t-15 -182.5zM217 535q0 53 6 124.5t26.5 136t60.5 109.5t108 45q70 0 111.5 -47 t63 -114.5t28 -142.5t6.5 -130q0 -57 -8.5 -125.5t-31 -129t-61.5 -100.5t-100 -40q-63 0 -103 43t-63.5 106.5t-33 135t-9.5 129.5z" />
<glyph unicode="e" horiz-adv-x="937" d="M33 526q0 -94 18.5 -195.5t65.5 -186.5t128 -139t204 -54q162 0 257 97t134 265l-187 25q-31 -96 -78 -155.5t-131 -59.5q-59 0 -100 32.5t-68.5 84t-41 114t-17.5 121.5h633v74q0 88 -18.5 188.5t-64.5 186.5t-124 142t-197 56q-123 0 -202.5 -59t-126.5 -148.5 t-65.5 -194t-18.5 -194.5zM229 653q4 51 19.5 104.5t42 95.5t64.5 68.5t91 26.5t90 -26.5t62 -68.5t39 -95.5t20 -104.5h-428z" />
<glyph unicode="f" horiz-adv-x="456" d="M-12 938h125v-965h186v965h162v160h-160q-2 14 -2 26v31v53q0 29 8 52.5t27.5 39t54.5 15.5q18 0 41 -2t64 -13l24 195q-49 12 -85 17.5t-71 5.5q-96 0 -147 -40t-74.5 -102.5t-25.5 -136.5t-2 -141h-125v-160z" />
<glyph unicode="g" d="M25 543q0 -55 8 -119t25.5 -127.5t47 -121.5t73.5 -103t101.5 -72t133.5 -27q63 0 113.5 23.5t90.5 64.5q0 -55 -5 -116.5t-25.5 -111.5t-63.5 -84t-118 -34q-76 0 -118 35t-50 125l-183 16v-38q0 -80 29 -138.5t78 -96.5t112.5 -56.5t133.5 -18.5q141 0 221 57.5 t119.5 146.5t50 194.5t10.5 203.5v953h-174v-80q-41 47 -95.5 75.5t-123.5 28.5q-117 0 -191.5 -59t-120 -147.5t-62.5 -189.5t-17 -183zM217 555q0 57 9.5 126t32 129t62 100t101.5 40q63 0 104 -41t64.5 -101t33 -131t9.5 -128q0 -59 -8.5 -130t-31 -131.5t-63.5 -101.5 t-106 -41q-66 0 -107 41t-63.5 102.5t-29.5 133.5t-7 133z" />
<glyph unicode="h" d="M80 -27h190v631q0 88 14.5 170t77.5 133q23 16 49.5 26.5t55.5 10.5q47 0 76.5 -20.5t47 -54t24 -77.5t6.5 -92v-727h186v707q0 74 -10.5 152.5t-44 143t-96 105.5t-167.5 41q-70 0 -125 -27.5t-98 -72.5v471h-186v-1520z" />
<glyph unicode="i" horiz-adv-x="374" d="M84 -27h186v1125h-186v-1125zM84 1276h186v217h-186v-217z" />
<glyph unicode="j" horiz-adv-x="362" d="M-104 -426q45 -18 75.5 -24.5t61.5 -6.5q84 0 130 42t67.5 103.5t25.5 131.5t4 125v1153h-184v-1174v-57q0 -16 -1 -40t-7.5 -46.5t-18.5 -38.5t-35 -16q-14 0 -31.5 4t-54.5 16zM76 1274h186v219h-186v-219z" />
<glyph unicode="k" horiz-adv-x="841" d="M78 -27h190v461l62 76l272 -537h238l-379 715l330 410h-220l-307 -398v793h-186v-1520z" />
<glyph unicode="l" horiz-adv-x="374" d="M80 -27h186v1520h-186v-1520z" />
<glyph unicode="m" horiz-adv-x="1400" d="M78 -27h190v600q0 51 4 116t21.5 121t54.5 94t103 38q39 0 63.5 -19.5t37.5 -50t17 -70.5t4 -83v-746h193v668q0 53 8 107.5t28.5 97.5t55.5 70.5t88 27.5q49 0 75 -25.5t38 -63.5t13 -81t1 -78v-723h187v762q0 63 -11.5 132t-42 126.5t-86 93t-143.5 35.5 q-86 0 -148.5 -44t-103.5 -105q-35 72 -97.5 110.5t-148.5 38.5q-72 0 -130 -31.5t-99 -82.5v90h-172v-1125z" />
<glyph unicode="n" d="M80 -27h190v631q0 59 7.5 119.5t29 109t59 79t101.5 30.5q49 0 78.5 -24.5t45 -62.5t20.5 -86t5 -95v-701h191v703q0 74 -9.5 152.5t-42 144t-95 107.5t-166.5 42q-78 0 -138.5 -30.5t-103.5 -83.5v90h-172v-1125z" />
<glyph unicode="o" d="M27 537q0 -92 18 -195.5t65.5 -189.5t127 -143.5t204.5 -57.5q117 0 217 69q63 47 103.5 110t61 133.5t27.5 144t7 143.5q0 92 -20.5 192.5t-67.5 184.5t-128 139t-200 55q-125 0 -204.5 -57t-127 -143t-65.5 -189.5t-18 -195.5zM219 537q0 61 9.5 133.5t35 135 t69.5 103.5t111 41q66 0 109 -41t68.5 -101t36 -132t10.5 -133q0 -63 -9.5 -137t-34 -136.5t-68.5 -104.5t-112 -42t-111.5 41t-69 103.5t-35 135t-9.5 134.5z" />
<glyph unicode="p" d="M80 -434h188v469q37 -39 86 -61.5t107 -22.5q115 0 190.5 62.5t119.5 153.5t62.5 193.5t18.5 184.5q0 80 -16.5 180t-59.5 188t-116.5 148.5t-188.5 60.5q-72 0 -124 -26.5t-91 -73.5v76h-176v-1532zM254 526q0 57 9 131t34 140.5t64.5 111.5t101.5 45q66 0 104.5 -45 t60 -108.5t29 -134t7.5 -121.5q0 -53 -7.5 -127t-29 -139.5t-62.5 -111.5t-108 -46q-61 0 -101.5 42t-63 103.5t-30.5 132t-8 127.5z" />
<glyph unicode="q" d="M27 537q0 -92 18 -195.5t65.5 -189.5t127 -143.5t204.5 -57.5q117 0 217 69q63 47 103.5 110t61 133.5t27.5 144t7 143.5q0 92 -20.5 192.5t-67.5 184.5t-128 139t-200 55q-125 0 -204.5 -57t-127 -143t-65.5 -189.5t-18 -195.5zM219 537q0 61 9.5 133.5t35 135 t69.5 103.5t111 41q66 0 109 -41t68.5 -101t36 -132t10.5 -133q0 -63 -9.5 -137t-34 -136.5t-68.5 -104.5t-112 -42t-111.5 41t-69 103.5t-35 135t-9.5 134.5zM340 -172l426 -217l92 178l-430 219z" />
<glyph unicode="r" horiz-adv-x="550" d="M78 -27h188v607q0 37 2 93t14.5 109.5t40 92t78.5 38.5q23 0 48.5 -12t70.5 -47l55 188q-43 37 -84.5 58.5t-89.5 21.5q-45 0 -82.5 -34.5t-64.5 -73.5v84h-176v-1125z" />
<glyph unicode="s" horiz-adv-x="841" d="M25 305q29 -182 118.5 -268t259.5 -86q78 0 143.5 26.5t112 73.5t72 112.5t25.5 143.5q0 82 -25.5 138.5t-66.5 93t-92.5 59.5t-102.5 39q-25 8 -49.5 14t-46.5 15q-29 10 -56.5 21t-49 28.5t-34 40t-12.5 57.5q0 72 43 104.5t115 32.5t111.5 -42t52.5 -134l176 29 q-25 172 -112 245.5t-238 73.5q-74 0 -133.5 -24.5t-102.5 -68.5t-65.5 -104.5t-22.5 -131.5q0 -82 24.5 -136.5t64.5 -91.5t90 -59.5t100 -38.5q25 -10 49 -16.5t47 -14.5q57 -20 102 -51t45 -96q0 -78 -46 -122t-124 -44q-90 0 -136 53t-60 168z" />
<glyph unicode="t" horiz-adv-x="466" d="M6 938h107v-612q0 -59 2 -124t20.5 -118t62.5 -88t130 -35q29 0 59.5 5.5t71.5 15.5l-25 192q-35 -6 -52 -8t-34 -2q-23 0 -33 8t-14 25q-6 20 -6 43v47v657h143v154h-143v264l-186 -10v-254h-103v-160z" />
<glyph unicode="u" horiz-adv-x="937" d="M78 391q0 -53 3 -109.5t18.5 -110.5t47 -101t91.5 -80q70 -39 149 -39q76 0 135.5 30.5t102.5 84.5v-93h176v1125h-187v-621q0 -59 -7 -121.5t-28.5 -114t-61.5 -83t-103 -31.5t-95 36t-44.5 87t-12.5 106v101v641h-184v-707z" />
<glyph unicode="v" horiz-adv-x="841" d="M-14 1098l333 -1125h166l330 1125h-192q-59 -205 -116.5 -395.5t-107.5 -383.5q-47 193 -103 383.5t-114 395.5h-196z" />
<glyph unicode="w" horiz-adv-x="1214" d="M-29 1098l269 -1125h192l141 691q29 -170 66 -340t76 -351h190l277 1125h-187q-45 -197 -87 -379t-85 -363q-39 180 -74.5 362.5t-76.5 379.5h-183q-43 -197 -85 -380t-76 -366l-164 746h-193z" />
<glyph unicode="x" horiz-adv-x="843" d="M-33 -27h232l202 389q98 -188 201 -389h232l-328 592l305 533h-221q-51 -94 -98.5 -178t-94.5 -168q-41 86 -85 170t-91 176h-229l297 -543z" />
<glyph unicode="y" horiz-adv-x="841" d="M-4 1098l323 -1100q-8 -31 -16 -79t-24.5 -94t-44 -79t-72.5 -33q-16 0 -40 5.5t-69 17.5l-2 -156q41 -23 75 -28t62 -5q78 0 129.5 47.5t85 116t54 144t37.5 133.5l325 1110h-188l-185 -641q-23 -70 -36 -131q-47 190 -103.5 380.5t-111.5 391.5h-199z" />
<glyph unicode="z" horiz-adv-x="841" d="M4 -27h791v172l-566 -4q141 197 272.5 399.5t266.5 403.5v154h-729v-164h410h86l-531 -778v-183z" />
<glyph unicode="{" horiz-adv-x="561" d="M23 440q55 -4 86.5 -31.5t47 -75.5t19.5 -115.5t4 -147.5q0 -37 -1 -75t1 -77q2 -45 7.5 -97t20.5 -101.5t43 -91.5t77 -66q29 -14 61.5 -16.5t59.5 -2.5h71v183q-12 0 -30.5 -1t-38 1t-37 5t-25.5 13q-23 23 -27 78t-3 126.5t2 154.5t-10 162t-40.5 149.5t-91.5 115.5 q68 55 97.5 134t37.5 166.5t5 176.5t-3 164q0 104 27 144q8 12 25.5 18t38 8t40 1t33.5 -1v177q-39 0 -89 1t-87 -14q-66 -25 -98.5 -80t-46.5 -125q-16 -74 -17.5 -149.5t0.5 -151.5q0 -84 -3 -152.5t-18.5 -117.5t-48 -76.5t-89.5 -29.5v-183z" />
<glyph unicode="|" horiz-adv-x="438" d="M125 -457h168v1975h-168v-1975z" />
<glyph unicode="}" horiz-adv-x="561" d="M14 -281v-176q41 0 90.5 -1t85.5 14q66 27 100 82t48 122q16 74 17 149t-1 150q0 82 2 149.5t17.5 117t47.5 78t89 32.5v191q-55 2 -87 28.5t-47.5 74.5t-18.5 114.5t-3 146.5v76q0 39 -2 78q0 43 -5 95t-20.5 102.5t-45 92.5t-78.5 64q-29 14 -60.5 16.5t-58.5 2.5h-70 v-177q12 0 30.5 1t39 -1t37 -6t26.5 -14q27 -29 29 -131q0 -51 -2 -109.5t-2 -122.5q0 -57 5 -116.5t20.5 -115.5t44 -106.5t75.5 -89.5q-70 -51 -99.5 -129.5t-38.5 -167t-6 -178.5t3 -164q-2 -53 -7 -88.5t-19 -56.5q-10 -12 -27 -18.5t-36 -8.5t-38.5 -1t-34.5 1z" />
<glyph unicode="~" horiz-adv-x="985" d="M16 1370l43 -231q33 39 60.5 65.5t52.5 44t50.5 25.5t53.5 8q47 0 89.5 -20.5t80.5 -42.5q43 -25 93.5 -45.5t109.5 -20.5q72 0 145 31t128 92l-45 244q-117 -160 -213 -160q-41 0 -86.5 22.5t-81.5 40.5q-45 25 -96.5 45.5t-110.5 20.5q-68 0 -143.5 -27.5t-129.5 -91.5 z" />
<glyph unicode="&#xa1;" horiz-adv-x="559" d="M158 -72v-358h221v354q0 37 -1 65.5t-3 57.5t-5 58.5t-5 66.5l-31 512h-135l-27 -512q-4 -72 -9 -123t-5 -121zM164 864h209v226h-209v-226z" />
<glyph unicode="&#xa2;" d="M63 537q0 -63 8.5 -136t31 -144t61.5 -133.5t100 -103.5l-88 -393l129 -49l90 375q27 -8 60 -8q86 0 151.5 35.5t111.5 94t75 134.5t41 156l-183 26q-6 -55 -21.5 -104t-40 -86t-58 -58.5t-78.5 -21.5q-10 0 -17 2l164 719q10 -20 18.5 -48t16.5 -63l178 35 q-16 102 -52 174t-114 119l88 375l-131 49l-86 -365q-16 2 -29.5 3t-29.5 1q-55 0 -106.5 -18.5t-94.5 -48.5q-61 -43 -99 -105.5t-59.5 -133.5t-29 -143.5t-7.5 -135.5zM252 545q0 61 9 133t32.5 133t65.5 102t108 41h8l-168 -729q-18 33 -28.5 73t-16.5 83t-8 85t-2 79z " />
<glyph unicode="&#xa3;" d="M-6 150l65 -205q135 104 248 104q45 0 86 -15.5t82 -34.5t84 -34.5t90 -15.5q59 0 110.5 22.5t110.5 53.5l-51 190q-55 -35 -96 -51.5t-76 -16.5q-43 0 -85 11.5t-83 24t-83 23.5t-87 11q-14 0 -27.5 -1t-27.5 -3q51 82 83 175t32 194q0 37 -9 67h215v172h-247 q-16 72 -29.5 143.5t-13.5 143.5q0 43 11 85t34.5 76t56.5 54t76 20t74.5 -19t55 -53t39 -80t21.5 -99l183 30q-10 84 -38 157t-73 126t-109.5 83t-150.5 30q-98 0 -169 -41t-117 -105.5t-67.5 -146.5t-21.5 -164q0 -63 9.5 -123.5t23.5 -120.5h-113v-166h156q4 -27 7 -51.5 t3 -50.5q0 -113 -41 -219.5t-141 -179.5z" />
<glyph unicode="&#xa4;" horiz-adv-x="929" d="M-51 524h123q18 -111 55 -214t99.5 -183t156.5 -129t229 -49q31 0 67 7t74 18.5t74.5 25.5t69.5 31l-53 190q-10 -6 -39 -18.5t-64.5 -24.5t-74.5 -22.5t-70 -10.5q-76 0 -131 33t-95 85t-64.5 120t-37.5 139h469l25 152h-510v90v22h530l25 162h-543q10 72 38 139.5 t72 121t103.5 85t132.5 31.5q59 0 114.5 -27.5t117.5 -91.5l80 178q-66 55 -150 94.5t-158 39.5q-125 0 -219 -48.5t-161.5 -127t-109.5 -180t-61 -208.5h-86l-26 -166h100q-2 -29 -1 -54t3 -54h-80z" />
<glyph unicode="&#xa5;" horiz-adv-x="933" d="M-41 1493l326 -729h-260v-166h327v-123h-327v-160h327v-342h187v342h323v160h-323v123h325v178h-262l322 717h-215l-222 -522q-10 -27 -22 -52.5t-23 -52.5q-10 27 -21 53.5t-24 53.5l-233 520h-205z" />
<glyph unicode="&#xa6;" horiz-adv-x="438" d="M125 352v-809h168v809h-168zM125 709h168v809h-168v-809z" />
<glyph unicode="&#xa7;" d="M39 643q0 -80 23.5 -138.5t62.5 -106.5t89 -90t103 -85q35 -29 84.5 -68.5t94.5 -85.5t76.5 -95.5t31.5 -94.5q0 -70 -41 -116t-106 -46q-45 0 -75 16.5t-51.5 46.5t-34.5 73t-24 98l-178 -31q18 -174 107.5 -275.5t255.5 -101.5q78 0 139 29t104 78t65.5 113.5 t22.5 136.5q0 80 -27.5 148.5t-78.5 127.5q80 51 119 118t39 169q0 88 -38 159.5t-94.5 132t-124 113t-126.5 101.5q-27 23 -55.5 48t-52 55t-39 62.5t-15.5 67.5q0 59 39 101.5t96 42.5q78 0 106.5 -59.5t43.5 -160.5l190 23q-18 170 -99 269.5t-249 99.5q-74 0 -131.5 -30 t-95 -79t-58 -111.5t-20.5 -126.5q0 -72 22.5 -130t61.5 -111q-80 -41 -121 -120t-41 -167zM213 666q0 53 22.5 91t63.5 72q51 -49 107.5 -92t109.5 -90q63 -55 103 -109.5t40 -107.5q0 -45 -22.5 -86t-56.5 -70q-41 35 -85 69t-87 67q-31 25 -66 50t-63.5 56t-47 68 t-18.5 82z" />
<glyph unicode="&#xa8;" horiz-adv-x="559" d="M23 1278h194v223h-194v-223zM317 1278h193v223h-193v-223z" />
<glyph unicode="&#xa9;" horiz-adv-x="1247" d="M-25 735q0 -129 39 -266t118 -252t194.5 -188.5t269.5 -73.5t269.5 73.5t193.5 188.5t116.5 252t38.5 266t-38.5 267.5t-116.5 253t-193.5 188.5t-269.5 74t-269.5 -74t-194.5 -188.5t-118 -253t-39 -267.5zM121 735q0 106 30.5 217t91 201t149.5 148.5t204 58.5 t203 -58.5t148.5 -148.5t92 -202t31.5 -216q0 -106 -31.5 -216.5t-92 -201t-148.5 -147.5t-203 -57t-203 57t-148.5 147.5t-92 201t-31.5 216.5zM262 733q0 -72 16.5 -149.5t55.5 -142t102.5 -106.5t157.5 -42q129 0 206.5 83t106.5 214l-139 53q-16 -96 -61 -151.5 t-117 -55.5q-51 0 -85 26.5t-54.5 69.5t-28.5 95.5t-8 103.5t9 104.5t29.5 97.5t55.5 72.5t88 28.5q113 0 162 -153l133 39q-33 123 -107.5 188.5t-185.5 65.5q-96 0 -160.5 -41t-103.5 -104.5t-55.5 -142.5t-16.5 -153z" />
<glyph unicode="&#xaa;" horiz-adv-x="624" d="M14 967q0 -47 14.5 -90t42 -76t67.5 -51.5t93 -18.5t98.5 20.5t82.5 51.5q2 -20 12 -51h178q-27 47 -37 111.5t-12 133t1 136t3 120.5q0 129 -60.5 197t-195.5 68q-45 0 -89 -11.5t-80 -38t-60.5 -68.5t-30.5 -104l147 -47q10 72 36 96.5t73 24.5q63 0 79.5 -37 t18.5 -100q-61 -16 -127.5 -25.5t-123 -33t-93.5 -69.5t-37 -138zM180 963q0 33 20.5 51t59.5 30q33 10 67.5 16.5t65.5 14.5q-4 -78 -32.5 -134t-104.5 -56t-76 78z" />
<glyph unicode="&#xab;" d="M80 522l252 -456h172l-211 464l209 459h-164zM391 530l250 -464h168l-211 460l211 463h-168z" />
<glyph unicode="&#xac;" horiz-adv-x="985" d="M63 852h631v-438h178v626h-809v-188z" />
<glyph unicode="&#xad;" horiz-adv-x="559" d="M-25 541h482v200h-482v-200z" />
<glyph unicode="&#xae;" horiz-adv-x="1247" d="M-25 735q0 -129 39 -266t118 -252t194.5 -188.5t269.5 -73.5t269.5 73.5t193.5 188.5t116.5 252t38.5 266t-38.5 267.5t-116.5 253t-193.5 188.5t-269.5 74t-269.5 -74t-194.5 -188.5t-118 -253t-39 -267.5zM121 735q0 106 30.5 217t91 201t149.5 148.5t204 58.5 t203 -58.5t148.5 -148.5t92 -202t31.5 -216q0 -106 -31.5 -216.5t-92 -201t-148.5 -147.5t-203 -57t-203 57t-148.5 147.5t-92 201t-31.5 216.5zM311 311h150v340h24q39 0 62 -22q18 -16 42.5 -56.5t49.5 -89.5t47.5 -96t34.5 -74h186q-20 41 -42.5 90.5t-47 98.5t-52.5 94 t-58 78q72 29 106.5 95.5t34.5 137.5q0 74 -24.5 121t-66.5 72.5t-95.5 35t-108.5 9.5h-242v-834zM461 795v211h94q68 0 103.5 -19.5t35.5 -85.5q0 -61 -33.5 -83.5t-99.5 -22.5h-100z" />
<glyph unicode="&#xaf;" horiz-adv-x="561" d="M0 1217h535v167h-535v-167z" />
<glyph unicode="&#xb0;" horiz-adv-x="673" d="M27 1227q0 -49 18 -101.5t55 -95.5t91.5 -69.5t125.5 -26.5q70 0 124.5 26.5t91 68.5t56 94.5t19.5 103.5t-19.5 102t-56 93t-91 69t-124.5 27q-72 0 -126 -27t-91 -69t-55 -94t-18 -101zM178 1225q0 27 9.5 53.5t26.5 49t43 36.5t60 14q35 0 62 -14t44 -36.5t26.5 -49 t9.5 -53.5t-9.5 -53.5t-26.5 -49t-44 -37t-62 -14.5t-60.5 14.5t-42.5 37t-26.5 49t-9.5 53.5z" />
<glyph unicode="&#xb1;" horiz-adv-x="925" d="M37 -27h807v187h-807v-187zM37 653h313v-403h178v403h316v187h-316v399h-178v-399h-313v-187z" />
<glyph unicode="&#xb2;" horiz-adv-x="561" d="M-8 719h543v153h-277q43 45 90 87t87 88.5t66.5 101.5t26.5 129q0 115 -69.5 174t-175.5 59q-111 0 -173.5 -55t-91.5 -182l162 -25q16 68 34.5 89.5t64.5 21.5q82 0 81 -84q0 -41 -35.5 -82t-66.5 -72q-47 -45 -92 -87t-82 -89t-61.5 -102.5t-30.5 -124.5z" />
<glyph unicode="&#xb3;" horiz-adv-x="559" d="M2 930q23 -129 92.5 -178.5t171.5 -49.5q55 0 102.5 17.5t82 49.5t54 78t19.5 103q0 127 -98 187q76 57 76 157q0 111 -66.5 164t-167.5 53q-51 0 -89 -11t-66.5 -36.5t-51 -65.5t-41.5 -95l152 -31q23 57 40 75.5t52 18.5q66 0 66 -76q0 -43 -28 -66.5t-91 -23.5 l-23 -137q35 -8 52.5 -9t33.5 -3q47 -4 65.5 -19.5t18.5 -68.5q0 -47 -26.5 -81t-71.5 -34q-41 0 -62.5 21.5t-39.5 80.5z" />
<glyph unicode="&#xb4;" horiz-adv-x="559" d="M147 1200h172l185 301h-244z" />
<glyph unicode="&#xb5;" horiz-adv-x="1384" d="M-49 -4l1073 -229l342 1607l-1073 230zM158 129l161 758l109 -23l-137 -645l127 -26l74 346l108 88l-119 -568zM328 926l100 473l109 -23l276 -428l-287 -235l99 461l-125 24l-64 -295zM518 51l117 545l153 -483l127 -27l-24 -115zM592 1364l569 -121l-39 -176l-129 29 l-147 -123zM729 735l389 312l-131 -621l-166 35zM838 416l141 -31l-53 -246z" />
<glyph unicode="&#xb6;" horiz-adv-x="899" d="M-27 1059q0 -74 18.5 -143.5t56.5 -127t96.5 -96.5t138.5 -49v-1077h182v1734h131v-1734h178v1734h113v193h-518q-102 0 -176 -33t-123.5 -91t-73 -138t-23.5 -172z" />
<glyph unicode="&#xb7;" horiz-adv-x="466" d="M123 610h203v224h-203v-224z" />
<glyph unicode="&#xb8;" horiz-adv-x="559" d="M57 -424q45 -16 78 -20.5t62 -4.5q45 0 90 13.5t79.5 39t56 67t21.5 96.5q0 66 -37.5 106.5t-91.5 56.5l21 97h-148l-47 -203q51 0 89 -5t38 -42q0 -29 -24.5 -41t-56 -15.5t-65.5 -1.5t-52 2z" />
<glyph unicode="&#xb9;" horiz-adv-x="559" d="M59 1161q61 23 100.5 43.5t69.5 42.5v-506h164v770h-121q-35 -61 -91 -116.5t-122 -81.5v-152z" />
<glyph unicode="&#xba;" horiz-adv-x="614" d="M12 1120q0 -59 12.5 -127.5t45 -126t86 -95.5t137.5 -38q82 0 135 39t85 98.5t45 127t13 126.5q0 57 -12 127t-44 128.5t-86 98.5t-136 40q-84 0 -138.5 -40t-86 -99.5t-44 -129t-12.5 -129.5zM174 1122q0 31 2 72t14.5 77t36 61.5t66.5 25.5q41 0 64.5 -24.5t36 -60.5 t15.5 -76t3 -71t-2 -72.5t-14.5 -78.5t-36 -62.5t-66.5 -25.5t-66.5 25.5t-35 61.5t-14.5 77t-3 71z" />
<glyph unicode="&#xbb;" d="M76 66h168l250 460l-252 461h-166l211 -459zM385 68h166l252 456l-254 465h-164l207 -463z" />
<glyph unicode="&#xbc;" horiz-adv-x="1402" d="M57 1161q61 23 100.5 43.5t69.5 42.5v-506h164v770h-121q-35 -61 -91 -116.5t-122 -81.5v-152zM160 -57h180l885 1575h-178zM797 109h303v-150h160v150h79v137h-79v483h-144l-319 -473v-147zM987 252l107 154v-154h-107z" />
<glyph unicode="&#xbd;" horiz-adv-x="1402" d="M57 1161q61 23 100.5 43.5t69.5 44.5v-508h162v770h-117q-37 -61 -93 -116.5t-122 -81.5v-152zM137 -68h180l889 1586h-178zM795 -45h540v151h-276q43 43 90 84t87 87.5t65.5 100.5t25.5 124q0 117 -71.5 173t-176.5 56q-106 0 -169.5 -52t-92.5 -181l160 -19 q20 63 38.5 85t63.5 22q82 0 82 -82q0 -23 -11 -44.5t-27.5 -42t-36 -39t-33.5 -32.5q-43 -41 -87 -82t-81 -88t-61.5 -101.5t-28.5 -119.5z" />
<glyph unicode="&#xbe;" horiz-adv-x="1402" d="M-2 930q23 -129 92.5 -178.5t171.5 -49.5q53 0 100.5 17.5t82 49.5t55 78t20.5 103q0 127 -100 187q76 57 76 157q0 111 -67 164t-165 53q-104 0 -157.5 -48t-90.5 -160l150 -31q23 57 40 75.5t52 18.5q68 0 68 -76q0 -43 -28 -65.5t-91 -22.5l-27 -147q96 4 134 -11.5 t38 -78.5q0 -49 -26.5 -82t-69.5 -33q-41 0 -63.5 21.5t-36.5 78.5zM156 -68h180l889 1586h-176zM797 109h301v-150h159v150h80v137h-80v502h-129l-331 -492v-147zM985 250l107 158v-158h-107z" />
<glyph unicode="&#xbf;" horiz-adv-x="1030" d="M104 -39q0 -86 27 -160.5t77 -132t121.5 -90.5t164.5 -33q96 0 165.5 35t116.5 94.5t73 139.5t36 172l-185 26q-8 -59 -23 -113.5t-40 -94.5t-60.5 -63.5t-87.5 -23.5q-47 0 -82.5 22.5t-61.5 58.5t-39 81t-13 92q0 45 13 81t33.5 69t47.5 62.5t53 60.5q29 33 56.5 69.5 t49 81.5t33 100.5t9.5 122.5l-4 70h-176q0 -78 -5.5 -136t-33.5 -103q-18 -29 -42 -54.5t-46 -50.5q-37 -43 -70 -84t-56.5 -87t-37 -98t-13.5 -114zM395 864h203v226h-203v-226z" />
<glyph unicode="&#xc0;" horiz-adv-x="1120" d="M-37 -27h213l127 449h449l135 -449h225l-494 1520h-194zM309 1862l193 -297h172l-117 297h-248zM362 614q43 141 86.5 281.5t73.5 288.5q37 -145 81 -287t85 -283h-326z" />
<glyph unicode="&#xc1;" horiz-adv-x="1120" d="M-37 -27h213l127 449h449l135 -449h225l-494 1520h-194zM362 614q43 141 86.5 281.5t73.5 288.5q37 -145 81 -287t85 -283h-326zM399 1563h172l185 299h-244z" />
<glyph unicode="&#xc2;" horiz-adv-x="1120" d="M-37 -27h213l127 449h449l135 -449h225l-494 1520h-194zM244 1565h217l55 104l51 -102h219l-190 295h-170zM362 614q43 141 86.5 281.5t73.5 288.5q37 -145 81 -287t85 -283h-326z" />
<glyph unicode="&#xc3;" horiz-adv-x="1120" d="M-37 -27h213l127 449h449l135 -449h225l-494 1520h-194zM252 1548h147q0 49 9.5 65.5t23.5 16.5q16 0 39 -13t49.5 -28.5t56 -28t62.5 -12.5q55 0 89 24.5t54.5 62.5t28.5 85.5t8 94.5h-145q-2 -16 -2 -27q0 -8 -2 -16q0 -14 -5.5 -30t-23.5 -16q-23 0 -44.5 13.5t-46 29 t-53 28.5t-61.5 13q-51 0 -87 -23.5t-57.5 -60t-30.5 -84t-9 -94.5zM362 614q43 141 86.5 281.5t73.5 288.5q37 -145 81 -287t85 -283h-326z" />
<glyph unicode="&#xc4;" horiz-adv-x="1120" d="M-37 -27h213l127 449h449l135 -449h225l-494 1520h-194zM274 1563h193v225h-193v-225zM362 614q43 141 86.5 281.5t73.5 288.5q37 -145 81 -287t85 -283h-326zM569 1563h193v225h-193v-225z" />
<glyph unicode="&#xc5;" horiz-adv-x="1120" d="M-37 -27h213l127 449h449l135 -449h225l-479 1479q27 29 54.5 68t27.5 82q0 33 -12.5 69.5t-37 66t-61.5 49t-86 19.5q-47 0 -84 -19.5t-61.5 -48t-37.5 -64.5t-13 -68q0 -47 29.5 -89t60.5 -71zM362 614q43 141 86.5 281.5t73.5 288.5q37 -145 81 -287t85 -283h-326z M444 1604q0 29 20.5 58.5t57.5 29.5q39 0 58.5 -28.5t19.5 -61.5q0 -29 -25.5 -60t-54.5 -31t-52.5 31t-23.5 62z" />
<glyph unicode="&#xc6;" horiz-adv-x="1683" d="M-39 -27h217l160 426h407v-426h801v193h-602v493h541v193h-541v448h582v193h-987zM418 610l262 684h63v-684h-325z" />
<glyph unicode="&#xc7;" horiz-adv-x="1214" d="M55 743q0 -109 19.5 -233.5t69 -237t133 -197.5t215.5 -114l-31 -137q51 0 88 -5t37 -42q0 -29 -23.5 -41t-56.5 -15.5t-65.5 -1.5t-51.5 2l-12 -145q45 -16 77.5 -20.5t61.5 -4.5q45 0 90 13.5t80 39t56.5 66.5t21.5 97q0 66 -38 106.5t-91 56.5l4 19q109 4 190.5 48 t140 115.5t96.5 165t58 195.5l-190 62q-14 -80 -40 -152t-64.5 -126t-93 -85t-128.5 -31q-111 0 -179.5 58.5t-107 148.5t-53 195.5t-14.5 201.5t15.5 199t55.5 188t109.5 140t177.5 55q63 0 109.5 -21.5t81.5 -61.5t58.5 -95t41.5 -125l193 53q-25 96 -66 177t-101.5 139.5 t-138 91.5t-176.5 33q-106 0 -189 -34t-145.5 -93.5t-105.5 -136t-69.5 -162.5t-38 -176.5t-11.5 -172.5z" />
<glyph unicode="&#xc8;" horiz-adv-x="1120" d="M100 -27h908v193h-711v496h592v192h-592v446h684v193h-881v-1520zM330 1862l192 -297h172l-116 297h-248z" />
<glyph unicode="&#xc9;" horiz-adv-x="1120" d="M100 -27h908v193h-711v496h592v192h-592v446h684v193h-881v-1520zM416 1563h172l184 299h-244z" />
<glyph unicode="&#xca;" horiz-adv-x="1120" d="M100 -27h908v193h-711v496h592v192h-592v446h684v193h-881v-1520zM279 1565h217l55 104l51 -102h219l-190 295h-170z" />
<glyph unicode="&#xcb;" horiz-adv-x="1120" d="M100 -27h908v193h-711v496h592v192h-592v446h684v193h-881v-1520zM311 1563h193v225h-193v-225zM606 1563h191v225h-191v-225z" />
<glyph unicode="&#xcc;" horiz-adv-x="466" d="M-2 1862l195 -297h169l-114 297h-250zM127 -27h197v1520h-197v-1520z" />
<glyph unicode="&#xcd;" horiz-adv-x="466" d="M84 1563h172l184 299h-243zM127 -27h197v1520h-197v-1520z" />
<glyph unicode="&#xce;" horiz-adv-x="466" d="M-53 1565h217l55 104l51 -102h219l-190 295h-170zM127 -27h197v1520h-197v-1520z" />
<glyph unicode="&#xcf;" horiz-adv-x="466" d="M-23 1563h195v225h-195v-225zM127 -27h197v1520h-197v-1520zM272 1563h193v225h-193v-225z" />
<glyph unicode="&#xd0;" horiz-adv-x="1214" d="M-27 655h125v-682h441q41 0 87 2t89 17q121 37 195.5 120t116.5 188.5t57.5 222t15.5 218.5q0 94 -14.5 208t-55.5 218.5t-112.5 186.5t-184.5 116q-51 16 -108.5 19.5t-104.5 3.5h-422v-682h-125v-156zM295 166v489h319v160h-317v481h221q43 0 92 -3t84 -19 q66 -29 106 -89.5t62.5 -136t30.5 -156.5t8 -151q0 -72 -7 -155.5t-28.5 -160.5t-63.5 -139.5t-110 -92.5q-39 -16 -83 -21.5t-89 -5.5h-225z" />
<glyph unicode="&#xd1;" horiz-adv-x="1214" d="M96 -27h193v1084l571 -1084h193v1520h-193v-1083l-573 1083h-191v-1520zM315 1548h148q0 49 9 65.5t24 16.5q18 0 40.5 -13t49 -28.5t56.5 -28t60 -12.5q55 0 90 23.5t54.5 62.5t28 86.5t8.5 94.5h-144q-2 -16 -2 -25q0 -8 -2 -18q-2 -12 -6 -29t-22 -17 q-23 0 -45.5 13.5t-47 29t-52 28.5t-60.5 13q-51 0 -87 -23.5t-57.5 -60t-32 -84t-10.5 -94.5z" />
<glyph unicode="&#xd2;" horiz-adv-x="1306" d="M51 715q0 -125 32 -260.5t100.5 -248t178 -185t263.5 -72.5q160 0 270.5 74.5t178 190.5t98 253t30.5 264q0 84 -13 175t-41 178t-73 167t-108.5 139.5t-148.5 94.5t-191 35q-166 0 -277.5 -78t-177.5 -197t-93.5 -260t-27.5 -270zM250 709q0 57 4 123.5t16.5 131t35 123 t56.5 101.5q53 66 118 102.5t149 36.5q106 0 178 -57.5t115 -146.5t61 -194.5t18 -199.5q0 -96 -18 -200.5t-61 -191.5t-116 -143.5t-181 -56.5q-104 0 -176 54.5t-116 138.5t-63.5 184t-19.5 195zM381 1862l194 -297h170l-114 297h-250z" />
<glyph unicode="&#xd3;" horiz-adv-x="1306" d="M51 715q0 -125 32 -260.5t100.5 -248t178 -185t263.5 -72.5q160 0 270.5 74.5t178 190.5t98 253t30.5 264q0 84 -13 175t-41 178t-73 167t-108.5 139.5t-148.5 94.5t-191 35q-166 0 -277.5 -78t-177.5 -197t-93.5 -260t-27.5 -270zM250 709q0 57 4 123.5t16.5 131t35 123 t56.5 101.5q53 66 118 102.5t149 36.5q106 0 178 -57.5t115 -146.5t61 -194.5t18 -199.5q0 -96 -18 -200.5t-61 -191.5t-116 -143.5t-181 -56.5q-104 0 -176 54.5t-116 138.5t-63.5 184t-19.5 195zM506 1563h172l184 299h-241z" />
<glyph unicode="&#xd4;" horiz-adv-x="1306" d="M51 715q0 -125 32 -260.5t100.5 -248t178 -185t263.5 -72.5q160 0 270.5 74.5t178 190.5t98 253t30.5 264q0 84 -13 175t-41 178t-73 167t-108.5 139.5t-148.5 94.5t-191 35q-166 0 -277.5 -78t-177.5 -197t-93.5 -260t-27.5 -270zM250 709q0 57 4 123.5t16.5 131t35 123 t56.5 101.5q53 66 118 102.5t149 36.5q106 0 178 -57.5t115 -146.5t61 -194.5t18 -199.5q0 -96 -18 -200.5t-61 -191.5t-116 -143.5t-181 -56.5q-104 0 -176 54.5t-116 138.5t-63.5 184t-19.5 195zM350 1565h217l56 104l51 -102h219l-191 295h-170z" />
<glyph unicode="&#xd5;" horiz-adv-x="1306" d="M51 715q0 -125 32 -260.5t100.5 -248t178 -185t263.5 -72.5q160 0 270.5 74.5t178 190.5t98 253t30.5 264q0 84 -13 175t-41 178t-73 167t-108.5 139.5t-148.5 94.5t-191 35q-166 0 -277.5 -78t-177.5 -197t-93.5 -260t-27.5 -270zM250 709q0 57 4 123.5t16.5 131t35 123 t56.5 101.5q53 66 118 102.5t149 36.5q106 0 178 -57.5t115 -146.5t61 -194.5t18 -199.5q0 -96 -18 -200.5t-61 -191.5t-116 -143.5t-181 -56.5q-104 0 -176 54.5t-116 138.5t-63.5 184t-19.5 195zM344 1548h148q0 49 9 65.5t23 16.5q16 0 39 -13t49.5 -28.5t56 -28 t62.5 -12.5q53 0 88 23.5t55.5 62.5t28.5 86.5t8 94.5h-145q-2 -16 -2 -27q0 -8 -2 -16q0 -14 -5 -30t-24 -16q-23 0 -44 13.5t-46 29t-53.5 28.5t-61.5 13q-51 0 -86.5 -23.5t-57.5 -60t-31 -84t-9 -94.5z" />
<glyph unicode="&#xd6;" horiz-adv-x="1306" d="M51 715q0 -125 32 -260.5t100.5 -248t178 -185t263.5 -72.5q160 0 270.5 74.5t178 190.5t98 253t30.5 264q0 84 -13 175t-41 178t-73 167t-108.5 139.5t-148.5 94.5t-191 35q-166 0 -277.5 -78t-177.5 -197t-93.5 -260t-27.5 -270zM250 709q0 57 4 123.5t16.5 131t35 123 t56.5 101.5q53 66 118 102.5t149 36.5q106 0 178 -57.5t115 -146.5t61 -194.5t18 -199.5q0 -96 -18 -200.5t-61 -191.5t-116 -143.5t-181 -56.5q-104 0 -176 54.5t-116 138.5t-63.5 184t-19.5 195zM383 1563h192v225h-192v-225zM678 1563h192v225h-192v-225z" />
<glyph unicode="&#xd7;" horiz-adv-x="983" d="M98 414l121 -158l248 313l246 -313l125 156l-248 313l241 311l-118 154l-244 -311l-248 311l-121 -158l242 -309z" />
<glyph unicode="&#xd8;" horiz-adv-x="1306" d="M41 39l111 -123l124 176q76 -72 156 -108.5t195 -36.5q106 0 189 34.5t147.5 94t109.5 138.5t73 166t41 178t13 173q0 145 -27.5 261t-93.5 243l133 186l-110 121l-123 -170q-76 72 -155 109t-193 37q-109 0 -194 -35t-149.5 -94.5t-109.5 -137t-73.5 -166t-41 -179.5 t-12.5 -177q0 -78 6 -141.5t20.5 -121.5t38 -116.5t56.5 -126.5zM250 743q0 98 17.5 202t61.5 188t117.5 138t186.5 54q76 0 127 -29t104 -82l-563 -796q-29 84 -40 157.5t-11 167.5zM385 240l563 798q27 -78 38 -157.5t11 -163.5q0 -96 -18 -197.5t-63.5 -185.5 t-118 -138.5t-181.5 -54.5q-74 0 -127 24.5t-104 74.5z" />
<glyph unicode="&#xd9;" horiz-adv-x="1214" d="M100 618q0 -121 15.5 -239.5t64.5 -214.5t143.5 -155.5t254.5 -59.5q156 0 250 60.5t144 157.5t65.5 215.5t15.5 235.5v875h-197v-893q0 -94 -7 -176t-37 -143.5t-88 -97.5t-161 -36q-94 0 -147.5 39t-80 103.5t-33.5 145.5t-7 165v893h-195v-875zM334 1862l192 -297h170 l-114 297h-248z" />
<glyph unicode="&#xda;" horiz-adv-x="1214" d="M100 618q0 -121 15.5 -239.5t64.5 -214.5t143.5 -155.5t254.5 -59.5q156 0 250 60.5t144 157.5t65.5 215.5t15.5 235.5v875h-197v-893q0 -94 -7 -176t-37 -143.5t-88 -97.5t-161 -36q-94 0 -147.5 39t-80 103.5t-33.5 145.5t-7 165v893h-195v-875zM457 1563h172l184 299 h-244z" />
<glyph unicode="&#xdb;" horiz-adv-x="1214" d="M100 618q0 -121 15.5 -239.5t64.5 -214.5t143.5 -155.5t254.5 -59.5q156 0 250 60.5t144 157.5t65.5 215.5t15.5 235.5v875h-197v-893q0 -94 -7 -176t-37 -143.5t-88 -97.5t-161 -36q-94 0 -147.5 39t-80 103.5t-33.5 145.5t-7 165v893h-195v-875zM301 1565h217l55 104 l52 -102h219l-191 295h-170z" />
<glyph unicode="&#xdc;" horiz-adv-x="1214" d="M100 618q0 -121 15.5 -239.5t64.5 -214.5t143.5 -155.5t254.5 -59.5q156 0 250 60.5t144 157.5t65.5 215.5t15.5 235.5v875h-197v-893q0 -94 -7 -176t-37 -143.5t-88 -97.5t-161 -36q-94 0 -147.5 39t-80 103.5t-33.5 145.5t-7 165v893h-195v-875zM334 1563h192v225h-192 v-225zM629 1563h192v225h-192v-225z" />
<glyph unicode="&#xdd;" horiz-adv-x="1120" d="M-41 1493l465 -877v-643h199v643l477 877h-228q-90 -174 -176 -334t-164 -325q-78 166 -162.5 326.5t-174.5 332.5h-236zM410 1563h172l186 299h-244z" />
<glyph unicode="&#xde;" horiz-adv-x="1120" d="M100 -27h197v310h268q45 0 95.5 5t98.5 20.5t91 41t74 68.5q53 72 76.5 153.5t23.5 167.5q0 51 -8 102.5t-29 100.5q-31 78 -76 125t-101 71.5t-121.5 32t-135.5 7.5h-256v315h-197v-1520zM297 483v502h274q33 0 73 -1t63 -11q31 -12 54 -37t37.5 -57.5t21.5 -68.5t7 -73 q0 -131 -60 -192.5t-194 -61.5h-276z" />
<glyph unicode="&#xdf;" horiz-adv-x="1028" d="M94 -27h191v1043q0 45 2 102.5t16 108.5t48 87t100 36q59 0 96 -38t37 -95q0 -51 -29 -101.5t-63.5 -101.5t-63.5 -105.5t-29 -115.5q0 -63 28 -109.5t69 -85.5t88 -71.5t88 -67.5t68.5 -74t27.5 -88q0 -31 -9 -61.5t-25.5 -56t-40 -41t-52.5 -15.5q-31 0 -55.5 20.5 t-44 50t-33.5 62.5t-25 57l-149 -88q18 -55 48 -105t67.5 -88t87 -60.5t108.5 -22.5q76 0 133.5 30.5t96 81t59 113.5t20.5 129q0 68 -22.5 118t-59 91t-83 75t-93.5 68q-31 23 -66.5 54.5t-35.5 72.5q0 35 27.5 80t61.5 98.5t61.5 113t27.5 124.5q0 68 -23.5 126t-65.5 101 t-100.5 68t-127.5 25q-119 0 -190.5 -49.5t-109.5 -126t-49.5 -168t-11.5 -175.5v-1026z" />
<glyph unicode="&#xe0;" d="M33 276q0 -143 81 -234t230 -91q92 0 160.5 31.5t128.5 87.5q4 -20 11 -44t18 -53h200q-31 74 -44 165t-16 187.5t-1 190.5t2 174q0 90 -10.5 169t-45 137.5t-102 92t-184.5 33.5q-166 0 -266.5 -78.5t-131.5 -267.5l177 -31q12 57 26.5 96.5t36 63t54 33.5t81.5 10 q102 0 139 -62.5t37 -164.5v-35q-72 -29 -152.5 -39t-157.5 -28.5t-140.5 -59.5t-102.5 -131q-16 -37 -22 -76t-6 -76zM223 1501l193 -299h172l-117 299h-248zM229 274q0 76 37 109t99 51q63 18 126.5 29.5t122.5 38.5v-31q0 -68 -11 -131.5t-38.5 -112.5t-74 -78.5 t-117.5 -29.5q-70 0 -107 42t-37 113z" />
<glyph unicode="&#xe1;" d="M33 276q0 -143 81 -234t230 -91q92 0 160.5 31.5t128.5 87.5q4 -20 11 -44t18 -53h200q-31 74 -44 165t-16 187.5t-1 190.5t2 174q0 90 -10.5 169t-45 137.5t-102 92t-184.5 33.5q-166 0 -266.5 -78.5t-131.5 -267.5l177 -31q12 57 26.5 96.5t36 63t54 33.5t81.5 10 q102 0 139 -62.5t37 -164.5v-35q-72 -29 -152.5 -39t-157.5 -28.5t-140.5 -59.5t-102.5 -131q-16 -37 -22 -76t-6 -76zM229 274q0 76 37 109t99 51q63 18 126.5 29.5t122.5 38.5v-31q0 -68 -11 -131.5t-38.5 -112.5t-74 -78.5t-117.5 -29.5q-70 0 -107 42t-37 113zM338 1200 h172l184 301h-243z" />
<glyph unicode="&#xe2;" d="M33 276q0 -143 81 -234t230 -91q92 0 160.5 31.5t128.5 87.5q4 -20 11 -44t18 -53h200q-31 74 -44 165t-16 187.5t-1 190.5t2 174q0 90 -10.5 169t-45 137.5t-102 92t-184.5 33.5q-166 0 -266.5 -78.5t-131.5 -267.5l177 -31q12 57 26.5 96.5t36 63t54 33.5t81.5 10 q102 0 139 -62.5t37 -164.5v-35q-72 -29 -152.5 -39t-157.5 -28.5t-140.5 -59.5t-102.5 -131q-16 -37 -22 -76t-6 -76zM166 1204h219l53 105l54 -105h219l-191 297h-170zM229 274q0 76 37 109t99 51q63 18 126.5 29.5t122.5 38.5v-31q0 -68 -11 -131.5t-38.5 -112.5 t-74 -78.5t-117.5 -29.5q-70 0 -107 42t-37 113z" />
<glyph unicode="&#xe3;" d="M33 276q0 -143 81 -234t230 -91q92 0 160.5 31.5t128.5 87.5q4 -20 11 -44t18 -53h200q-31 74 -44 165t-16 187.5t-1 190.5t2 174q0 90 -10.5 169t-45 137.5t-102 92t-184.5 33.5q-166 0 -266.5 -78.5t-131.5 -267.5l177 -31q12 57 26.5 96.5t36 63t54 33.5t81.5 10 q102 0 139 -62.5t37 -164.5v-35q-72 -29 -152.5 -39t-157.5 -28.5t-140.5 -59.5t-102.5 -131q-16 -37 -22 -76t-6 -76zM158 1210h145q0 49 10.5 66.5t24.5 17.5q16 0 38.5 -13t49.5 -28.5t56.5 -29t62.5 -13.5q53 0 88 25t55.5 62.5t28.5 85t8 94.5h-145q-2 -12 -2 -21v-14 q-2 -14 -7.5 -32.5t-23.5 -18.5q-23 0 -45.5 13t-47 28.5t-52 29t-60.5 13.5q-51 0 -87 -24t-57.5 -61.5t-30.5 -85t-9 -94.5zM229 274q0 76 37 109t99 51q63 18 126.5 29.5t122.5 38.5v-31q0 -68 -11 -131.5t-38.5 -112.5t-74 -78.5t-117.5 -29.5q-70 0 -107 42t-37 113z " />
<glyph unicode="&#xe4;" d="M33 276q0 -143 81 -234t230 -91q92 0 160.5 31.5t128.5 87.5q4 -20 11 -44t18 -53h200q-31 74 -44 165t-16 187.5t-1 190.5t2 174q0 90 -10.5 169t-45 137.5t-102 92t-184.5 33.5q-166 0 -266.5 -78.5t-131.5 -267.5l177 -31q12 57 26.5 96.5t36 63t54 33.5t81.5 10 q102 0 139 -62.5t37 -164.5v-35q-72 -29 -152.5 -39t-157.5 -28.5t-140.5 -59.5t-102.5 -131q-16 -37 -22 -76t-6 -76zM199 1278h192v223h-192v-223zM229 274q0 76 37 109t99 51q63 18 126.5 29.5t122.5 38.5v-31q0 -68 -11 -131.5t-38.5 -112.5t-74 -78.5t-117.5 -29.5 q-70 0 -107 42t-37 113zM494 1278h192v223h-192v-223z" />
<glyph unicode="&#xe5;" d="M33 276q0 -143 81 -234t230 -91q92 0 160.5 31.5t128.5 87.5q4 -20 11 -44t18 -53h200q-31 74 -44 165t-16 187.5t-1 190.5t2 174q0 90 -10.5 169t-45 137.5t-102 92t-184.5 33.5q-166 0 -266.5 -78.5t-131.5 -267.5l177 -31q12 57 26.5 96.5t36 63t54 33.5t81.5 10 q102 0 139 -62.5t37 -164.5v-35q-72 -29 -152.5 -39t-157.5 -28.5t-140.5 -59.5t-102.5 -131q-16 -37 -22 -76t-6 -76zM229 274q0 76 37 109t99 51q63 18 126.5 29.5t122.5 38.5v-31q0 -68 -11 -131.5t-38.5 -112.5t-74 -78.5t-117.5 -29.5q-70 0 -107 42t-37 113zM244 1343 q0 -35 11 -71.5t35.5 -67t61.5 -50t88 -19.5q49 0 86 19.5t61.5 49t37 65t12.5 70.5q0 33 -12.5 70t-37 66.5t-61.5 49t-86 19.5q-47 0 -84 -19.5t-61.5 -48t-37.5 -64.5t-13 -69zM367 1339q0 33 19.5 62t57.5 29q37 0 57.5 -30t20.5 -63q0 -31 -20.5 -60.5t-57.5 -29.5 q-39 0 -58 31t-19 61z" />
<glyph unicode="&#xe6;" horiz-adv-x="1495" d="M27 274q0 -70 20.5 -129t60 -102t97 -67.5t131.5 -24.5q111 0 191.5 51t146.5 127q53 -80 126.5 -129t180.5 -49q164 0 259 101.5t136 266.5l-186 27q-23 -102 -70 -161.5t-127 -59.5q-59 0 -112 43q-68 57 -84.5 138t-18.5 173h608v86q0 86 -19 183.5t-64.5 180.5 t-122 138t-189.5 55q-84 0 -147.5 -29.5t-114.5 -88.5q-51 72 -129 95t-158 23q-172 0 -261 -88t-124 -268l174 -27q10 61 23.5 101.5t36 65t57.5 34.5t86 10q55 0 87 -17.5t48.5 -49t21.5 -76.5t5 -98v-29q-68 -23 -144.5 -34t-149.5 -31.5t-135.5 -57.5t-100.5 -111 q-39 -78 -39 -172zM221 274q0 66 46 108t108.5 65.5t125 34t97.5 12.5q0 -27 -3 -70t-12.5 -89t-28.5 -90t-50 -71q-61 -55 -144 -55q-68 0 -103.5 42t-35.5 113zM776 651q6 53 19.5 106.5t39 95.5t63.5 68.5t93 26.5t93 -26.5t61.5 -68.5t36 -95.5t18.5 -106.5h-424z" />
<glyph unicode="&#xe7;" horiz-adv-x="841" d="M45 530q0 -74 11.5 -158.5t42 -164.5t85 -143.5t140.5 -94.5l-29 -125q53 0 90 -5t37 -42q0 -31 -27.5 -44t-72.5 -13h-99l-10 -143q43 -16 76 -20.5t61 -4.5q45 0 90 12.5t80 39t56.5 67.5t21.5 96q0 66 -38 105.5t-91 56.5v2q80 6 140.5 41t102.5 90t67.5 126.5 t35.5 151.5l-180 27q-6 -57 -19.5 -105.5t-36 -84t-56.5 -56t-79 -20.5q-68 0 -109.5 42t-63 104.5t-28.5 135t-7 136.5q0 61 8 133.5t30.5 135t65.5 103.5t111 41q74 0 113.5 -61.5t58.5 -157.5l176 31q-27 162 -113 260t-244 98q-123 0 -200.5 -59t-120.5 -148.5 t-59.5 -193t-16.5 -191.5z" />
<glyph unicode="&#xe8;" d="M33 526q0 -94 18.5 -195.5t65.5 -186.5t128 -139t204 -54q162 0 257 97t134 265l-187 25q-31 -96 -78 -155.5t-131 -59.5q-59 0 -100 32.5t-68.5 84t-41 114t-17.5 121.5h633v74q0 88 -18.5 188.5t-64.5 186.5t-124 142t-197 56q-123 0 -202.5 -59t-126.5 -148.5 t-65.5 -194t-18.5 -194.5zM201 1501l192 -299h170l-114 299h-248zM229 653q4 51 19.5 104.5t42 95.5t64.5 68.5t91 26.5t90 -26.5t62 -68.5t39 -95.5t20 -104.5h-428z" />
<glyph unicode="&#xe9;" d="M33 526q0 -94 18.5 -195.5t65.5 -186.5t128 -139t204 -54q162 0 257 97t134 265l-187 25q-31 -96 -78 -155.5t-131 -59.5q-59 0 -100 32.5t-68.5 84t-41 114t-17.5 121.5h633v74q0 88 -18.5 188.5t-64.5 186.5t-124 142t-197 56q-123 0 -202.5 -59t-126.5 -148.5 t-65.5 -194t-18.5 -194.5zM229 653q4 51 19.5 104.5t42 95.5t64.5 68.5t91 26.5t90 -26.5t62 -68.5t39 -95.5t20 -104.5h-428zM340 1200h172l184 301h-243z" />
<glyph unicode="&#xea;" d="M33 526q0 -94 18.5 -195.5t65.5 -186.5t128 -139t204 -54q162 0 257 97t134 265l-187 25q-31 -96 -78 -155.5t-131 -59.5q-59 0 -100 32.5t-68.5 84t-41 114t-17.5 121.5h633v74q0 88 -18.5 188.5t-64.5 186.5t-124 142t-197 56q-123 0 -202.5 -59t-126.5 -148.5 t-65.5 -194t-18.5 -194.5zM168 1204h217l55 105l52 -105h219l-191 297h-170zM229 653q4 51 19.5 104.5t42 95.5t64.5 68.5t91 26.5t90 -26.5t62 -68.5t39 -95.5t20 -104.5h-428z" />
<glyph unicode="&#xeb;" d="M33 526q0 -94 18.5 -195.5t65.5 -186.5t128 -139t204 -54q162 0 257 97t134 265l-187 25q-31 -96 -78 -155.5t-131 -59.5q-59 0 -100 32.5t-68.5 84t-41 114t-17.5 121.5h633v74q0 88 -18.5 188.5t-64.5 186.5t-124 142t-197 56q-123 0 -202.5 -59t-126.5 -148.5 t-65.5 -194t-18.5 -194.5zM199 1278h194v223h-194v-223zM229 653q4 51 19.5 104.5t42 95.5t64.5 68.5t91 26.5t90 -26.5t62 -68.5t39 -95.5t20 -104.5h-428zM494 1278h192v223h-192v-223z" />
<glyph unicode="&#xec;" horiz-adv-x="466" d="M-16 1501l192 -299h172l-117 299h-247zM133 -27h186v1125h-186v-1125z" />
<glyph unicode="&#xed;" horiz-adv-x="466" d="M121 1200h172l184 301h-241zM133 -27h186v1125h-186v-1125z" />
<glyph unicode="&#xee;" horiz-adv-x="466" d="M-41 1204h217l55 105l52 -105h219l-191 297h-170zM133 -27h186v1125h-186v-1125z" />
<glyph unicode="&#xef;" horiz-adv-x="466" d="M-18 1278h194v223h-194v-223zM133 -27h186v1125h-186v-1125zM276 1278h193v223h-193v-223z" />
<glyph unicode="&#xf0;" horiz-adv-x="937" d="M33 516q0 -90 18.5 -190.5t64.5 -184.5t126 -138t200 -54q117 0 196 56t127 142t67.5 186.5t19.5 188.5q0 209 -64.5 397.5t-179.5 360.5l129 76l-47 133l-180 -107q-47 51 -111 111h-209q78 -66 119 -108t76 -78l-192 -111l45 -129l219 127q20 -33 35.5 -63.5 t31.5 -63.5q-25 10 -51.5 16.5t-60.5 6.5q-115 0 -188.5 -59.5t-115.5 -146.5t-58.5 -187.5t-16.5 -180.5zM221 510q0 61 8.5 134t32 134.5t65.5 103.5t109 42q66 0 110 -39t69.5 -97.5t36 -129.5t10.5 -132q0 -59 -10.5 -130.5t-35 -133t-67.5 -102.5t-109 -41t-107.5 38 t-66 96t-35 127t-10.5 130z" />
<glyph unicode="&#xf1;" d="M80 -27h190v631q0 59 7.5 119.5t29 109t59 79t101.5 30.5q49 0 78.5 -24.5t45 -62.5t20.5 -86t5 -95v-701h191v703q0 74 -9.5 152.5t-42 144t-95 107.5t-166.5 42q-78 0 -138.5 -30.5t-103.5 -83.5v90h-172v-1125zM184 1210h146q0 51 9 67.5t23 16.5q16 0 39 -13 t49.5 -28.5t57.5 -29t61 -13.5q55 0 90 25t55.5 62.5t29 85t8.5 94.5h-146q-2 -16 -2 -25q0 -8 -2 -16q-2 -14 -6 -29.5t-23 -15.5q-23 0 -45 13t-46.5 28.5t-52.5 29t-60 13.5q-51 0 -87 -24t-57.5 -61.5t-31 -85t-9.5 -94.5z" />
<glyph unicode="&#xf2;" d="M27 537q0 -92 18 -195.5t65.5 -189.5t127 -143.5t204.5 -57.5q117 0 217 69q63 47 103.5 110t61 133.5t27.5 144t7 143.5q0 92 -20.5 192.5t-67.5 184.5t-128 139t-200 55q-125 0 -204.5 -57t-127 -143t-65.5 -189.5t-18 -195.5zM201 1501l192 -299h172l-116 299h-248z M219 537q0 61 9.5 133.5t35 135t69.5 103.5t111 41q66 0 109 -41t68.5 -101t36 -132t10.5 -133q0 -63 -9.5 -137t-34 -136.5t-68.5 -104.5t-112 -42t-111.5 41t-69 103.5t-35 135t-9.5 134.5z" />
<glyph unicode="&#xf3;" d="M27 537q0 -92 18 -195.5t65.5 -189.5t127 -143.5t204.5 -57.5q117 0 217 69q63 47 103.5 110t61 133.5t27.5 144t7 143.5q0 92 -20.5 192.5t-67.5 184.5t-128 139t-200 55q-125 0 -204.5 -57t-127 -143t-65.5 -189.5t-18 -195.5zM219 537q0 61 9.5 133.5t35 135 t69.5 103.5t111 41q66 0 109 -41t68.5 -101t36 -132t10.5 -133q0 -63 -9.5 -137t-34 -136.5t-68.5 -104.5t-112 -42t-111.5 41t-69 103.5t-35 135t-9.5 134.5zM340 1200h172l184 301h-243z" />
<glyph unicode="&#xf4;" d="M27 537q0 -92 18 -195.5t65.5 -189.5t127 -143.5t204.5 -57.5q117 0 217 69q63 47 103.5 110t61 133.5t27.5 144t7 143.5q0 92 -20.5 192.5t-67.5 184.5t-128 139t-200 55q-125 0 -204.5 -57t-127 -143t-65.5 -189.5t-18 -195.5zM168 1204h219l53 105l54 -105h219 l-191 297h-170zM219 537q0 61 9.5 133.5t35 135t69.5 103.5t111 41q66 0 109 -41t68.5 -101t36 -132t10.5 -133q0 -63 -9.5 -137t-34 -136.5t-68.5 -104.5t-112 -42t-111.5 41t-69 103.5t-35 135t-9.5 134.5z" />
<glyph unicode="&#xf5;" d="M27 537q0 -92 18 -195.5t65.5 -189.5t127 -143.5t204.5 -57.5q117 0 217 69q63 47 103.5 110t61 133.5t27.5 144t7 143.5q0 92 -20.5 192.5t-67.5 184.5t-128 139t-200 55q-125 0 -204.5 -57t-127 -143t-65.5 -189.5t-18 -195.5zM160 1210h145q0 49 10.5 66.5t24.5 17.5 q16 0 38.5 -13t49.5 -28.5t56.5 -29t62.5 -13.5q53 0 88 25t55.5 62.5t28.5 85t8 94.5h-145q-2 -12 -2 -21v-14q-2 -14 -7.5 -32.5t-23.5 -18.5q-23 0 -45.5 13t-47 28.5t-52 29t-60.5 13.5q-51 0 -87 -24t-57.5 -61.5t-30.5 -85t-9 -94.5zM219 537q0 61 9.5 133.5t35 135 t69.5 103.5t111 41q66 0 109 -41t68.5 -101t36 -132t10.5 -133q0 -63 -9.5 -137t-34 -136.5t-68.5 -104.5t-112 -42t-111.5 41t-69 103.5t-35 135t-9.5 134.5z" />
<glyph unicode="&#xf6;" d="M27 537q0 -92 18 -195.5t65.5 -189.5t127 -143.5t204.5 -57.5q117 0 217 69q63 47 103.5 110t61 133.5t27.5 144t7 143.5q0 92 -20.5 192.5t-67.5 184.5t-128 139t-200 55q-125 0 -204.5 -57t-127 -143t-65.5 -189.5t-18 -195.5zM201 1278h192v223h-192v-223zM219 537 q0 61 9.5 133.5t35 135t69.5 103.5t111 41q66 0 109 -41t68.5 -101t36 -132t10.5 -133q0 -63 -9.5 -137t-34 -136.5t-68.5 -104.5t-112 -42t-111.5 41t-69 103.5t-35 135t-9.5 134.5zM496 1278h192v223h-192v-223z" />
<glyph unicode="&#xf7;" horiz-adv-x="925" d="M37 629h807v188h-807v-188zM338 309h203v226h-203v-226zM338 911h203v226h-203v-226z" />
<glyph unicode="&#xf8;" horiz-adv-x="1028" d="M76 518q0 -100 17.5 -198.5t74.5 -188.5l-78 -127l105 -106l75 120q98 -70 215 -69q125 0 206 56t128 142t65.5 188.5t18.5 196.5q0 113 -17.5 203t-70.5 191l82 133l-115 94l-71 -109q-49 35 -103.5 56.5t-122.5 21.5q-92 0 -162.5 -41t-125.5 -106 q-39 -47 -62.5 -103.5t-37 -117t-17.5 -122t-4 -114.5zM266 545q0 63 10.5 134t37 130t70.5 99t112 40q35 0 64 -16t58 -41l-329 -549q-14 49 -18.5 99.5t-4.5 103.5zM369 166l325 545q19 -91 19 -183q0 -66 -10.5 -136t-37 -129.5t-72.5 -98.5t-116 -39q-61 0 -108 41z" />
<glyph unicode="&#xf9;" d="M78 391q0 -53 3 -109.5t18.5 -110.5t47 -101t91.5 -80q70 -39 149 -39q76 0 135.5 30.5t102.5 84.5v-93h176v1125h-187v-621q0 -59 -7 -121.5t-28.5 -114t-61.5 -83t-103 -31.5t-95 36t-44.5 87t-12.5 106v101v641h-184v-707zM233 1501l193 -299h170l-115 299h-248z" />
<glyph unicode="&#xfa;" d="M78 391q0 -53 3 -109.5t18.5 -110.5t47 -101t91.5 -80q70 -39 149 -39q76 0 135.5 30.5t102.5 84.5v-93h176v1125h-187v-621q0 -59 -7 -121.5t-28.5 -114t-61.5 -83t-103 -31.5t-95 36t-44.5 87t-12.5 106v101v641h-184v-707zM330 1200h172l184 301h-244z" />
<glyph unicode="&#xfb;" d="M78 391q0 -53 3 -109.5t18.5 -110.5t47 -101t91.5 -80q70 -39 149 -39q76 0 135.5 30.5t102.5 84.5v-93h176v1125h-187v-621q0 -59 -7 -121.5t-28.5 -114t-61.5 -83t-103 -31.5t-95 36t-44.5 87t-12.5 106v101v641h-184v-707zM166 1204h217l53 105l53 -105h220l-191 297 h-170z" />
<glyph unicode="&#xfc;" d="M78 391q0 -53 3 -109.5t18.5 -110.5t47 -101t91.5 -80q70 -39 149 -39q76 0 135.5 30.5t102.5 84.5v-93h176v1125h-187v-621q0 -59 -7 -121.5t-28.5 -114t-61.5 -83t-103 -31.5t-95 36t-44.5 87t-12.5 106v101v641h-184v-707zM197 1278h192v223h-192v-223zM492 1278h192 v223h-192v-223z" />
<glyph unicode="&#xfd;" horiz-adv-x="841" d="M-4 1098l323 -1100q-8 -31 -16 -79t-24.5 -94t-44 -79t-72.5 -33q-16 0 -41 5.5t-74 21.5l27 -160q33 -20 59.5 -26.5t54.5 -6.5q78 0 129.5 47.5t85 116t54 144t37.5 133.5l325 1110h-188l-185 -641q-23 -70 -36 -131q-47 190 -103.5 380.5t-111.5 391.5h-199zM303 1200 h172l184 301h-243z" />
<glyph unicode="&#xfe;" d="M80 -434h190v467q37 -37 82 -60.5t111 -23.5q57 0 107.5 21.5t91.5 54.5q57 45 94 106.5t58.5 131t29.5 141.5t8 135q0 82 -17.5 181t-60.5 186t-116.5 146.5t-188.5 59.5q-70 0 -117 -23.5t-86 -64.5v469h-186v-1927zM254 522q0 57 9 130t34 138.5t64.5 110.5t101.5 45 q61 0 100 -42t62.5 -104.5t32 -133t8.5 -127.5q0 -59 -8.5 -132t-32 -136.5t-64.5 -106.5t-104 -43t-102.5 41t-62 102.5t-30.5 131t-8 126.5z" />
<glyph unicode="&#xff;" horiz-adv-x="841" d="M-4 1098l323 -1100q-8 -31 -16 -79t-24.5 -94t-44 -79t-72.5 -33q-16 0 -41 5.5t-74 21.5l27 -160q33 -20 59.5 -26.5t54.5 -6.5q78 0 129.5 47.5t85 116t54 144t37.5 133.5l325 1110h-188l-185 -641q-23 -70 -36 -131q-47 190 -103.5 380.5t-111.5 391.5h-199zM166 1278 h194v223h-194v-223zM461 1278h192v223h-192v-223z" />
<glyph unicode="&#x152;" horiz-adv-x="1681" d="M72 735q0 -74 8 -160t27.5 -174t55.5 -168.5t90 -144t131 -101.5t179 -38q98 0 169 43t120 112v-131h727v193h-537v498h474v190h-474v446h512v193h-700v-129q-49 70 -119.5 112t-169.5 42q-104 0 -181 -37t-132 -99.5t-90 -143.5t-55.5 -168t-27.5 -174t-7 -161zM272 717 q0 68 4.5 146.5t19.5 155.5t45 143.5t79 109.5q31 29 66.5 46t72.5 17q66 0 114 -39t85 -98q29 -43 46 -99.5t26.5 -117.5t12.5 -123t3 -115q0 -55 -3 -120.5t-12.5 -130t-27 -124t-45.5 -104.5q-37 -59 -85 -98t-114 -39t-114 39t-85 98q-29 43 -45 99.5t-26 117t-13.5 122 t-3.5 114.5z" />
<glyph unicode="&#x153;" horiz-adv-x="1587" d="M39 522q0 -92 19.5 -193.5t67.5 -185.5t128 -138t203 -54q104 0 180 46t129 122q53 -80 135 -124t182 -44q82 0 145.5 26.5t110.5 74.5t79 116t48 149l-180 33q-23 -102 -69 -165.5t-130 -63.5q-59 0 -100 33.5t-67.5 86t-41 115t-16.5 121.5h621q-6 98 -24.5 211 t-64.5 209t-125 160.5t-204 64.5q-98 0 -172 -50t-123 -126q-49 82 -130 129t-179 47q-127 0 -209 -58t-129 -147.5t-65.5 -195t-18.5 -199.5zM229 539q0 59 10.5 130.5t37 133t68.5 103.5t108 42q68 0 110.5 -41t68 -101.5t36 -132t10.5 -132.5t-10.5 -134t-36 -136.5 t-69.5 -105.5t-109 -42q-68 0 -112 41t-68.5 103.5t-34 135t-9.5 136.5zM870 651q6 51 20.5 104.5t41 96.5t64.5 69.5t91 26.5t91.5 -26.5t63 -68.5t37.5 -95.5t19 -106.5h-428z" />
<glyph unicode="&#x178;" horiz-adv-x="1120" d="M-41 1493l465 -877v-643h199v643l477 877h-228q-90 -174 -176 -334t-164 -325q-78 166 -162.5 326.5t-174.5 332.5h-236zM289 1563h192v225h-192v-225zM584 1563h192v225h-192v-225z" />
<glyph unicode="&#x2c6;" horiz-adv-x="550" d="M-8 1204h217l55 105l51 -105h220l-191 297h-170z" />
<glyph unicode="&#x2dc;" horiz-adv-x="559" d="M-18 1210h147q0 51 9 67.5t24 16.5q16 0 38.5 -13t49 -28.5t57.5 -29t62 -13.5q55 0 89 25t54 63.5t28.5 86t8.5 92.5h-146q-2 -16 -2 -25q0 -8 -2 -16q0 -14 -4 -29.5t-22 -15.5q-23 0 -45.5 13t-47 28.5t-52 29t-60.5 13.5q-51 0 -87 -24t-57.5 -61.5t-31.5 -85 t-10 -94.5z" />
<glyph unicode="&#x2000;" horiz-adv-x="931" />
<glyph unicode="&#x2001;" horiz-adv-x="1862" />
<glyph unicode="&#x2002;" horiz-adv-x="931" />
<glyph unicode="&#x2003;" horiz-adv-x="1862" />
<glyph unicode="&#x2004;" horiz-adv-x="620" />
<glyph unicode="&#x2005;" horiz-adv-x="465" />
<glyph unicode="&#x2006;" horiz-adv-x="310" />
<glyph unicode="&#x2007;" horiz-adv-x="310" />
<glyph unicode="&#x2008;" horiz-adv-x="232" />
<glyph unicode="&#x2009;" horiz-adv-x="372" />
<glyph unicode="&#x200a;" horiz-adv-x="103" />
<glyph unicode="&#x2010;" horiz-adv-x="559" d="M-25 541h482v200h-482v-200z" />
<glyph unicode="&#x2011;" horiz-adv-x="559" d="M-25 541h482v200h-482v-200z" />
<glyph unicode="&#x2012;" horiz-adv-x="559" d="M-25 541h482v200h-482v-200z" />
<glyph unicode="&#x2013;" d="M-29 449h942v163h-942v-163z" />
<glyph unicode="&#x2014;" horiz-adv-x="1687" d="M-27 449h1661v163h-1661v-163z" />
<glyph unicode="&#x2018;" horiz-adv-x="374" d="M76 1001h200v234h-73q4 53 20.5 100t73.5 80l-53 101q-59 -31 -92 -70t-50.5 -82t-21.5 -89t-4 -91v-183z" />
<glyph unicode="&#x2019;" horiz-adv-x="374" d="M53 1079l53 -104q57 33 90 75t49.5 86t20.5 91t4 92v188h-192v-227h67q-4 -57 -21.5 -112.5t-70.5 -88.5z" />
<glyph unicode="&#x201a;" horiz-adv-x="374" d="M55 -197l49 -102q57 31 90 68.5t49.5 78.5t20.5 86.5t4 88.5v176h-196v-226h71q-4 -49 -20.5 -94t-67.5 -76z" />
<glyph unicode="&#x201c;" horiz-adv-x="561" d="M39 1001h201v234h-74q4 53 20.5 99t73.5 81l-49 101q-59 -31 -93 -70t-51.5 -82t-22.5 -89t-5 -91v-183zM285 1001h198v234h-71q4 53 20.5 99t71.5 81l-49 101q-59 -31 -93 -70t-51.5 -82t-21.5 -89t-4 -91v-183z" />
<glyph unicode="&#x201d;" horiz-adv-x="561" d="M25 1079l49 -104q57 33 91 75t50 86t20.5 91t4.5 92v188h-193v-227h68q-2 -57 -19.5 -112.5t-70.5 -88.5zM268 1079l54 -104q57 33 89.5 75t49 86t20.5 91t4 92v188h-192v-227h67q-4 -57 -21 -112.5t-71 -88.5z" />
<glyph unicode="&#x201e;" horiz-adv-x="561" d="M25 -197l49 -102q57 31 90 68.5t49 78.5t20.5 86.5t4.5 88.5v176h-195v-226h70q-4 -49 -20.5 -95t-67.5 -75zM270 -197l49 -102q57 31 90 68.5t49.5 78.5t20.5 86.5t4 88.5v176h-196v-226h71q-4 -49 -20 -95t-68 -75z" />
<glyph unicode="&#x2022;" horiz-adv-x="589" d="M49 791q0 -45 16.5 -83t46 -67t68.5 -45t82 -16t83 16t68.5 44t46 67t17.5 84t-17.5 83.5t-46 66.5t-68.5 43t-83 15t-82 -16t-68.5 -44t-46 -65.5t-16.5 -82.5z" />
<glyph unicode="&#x2026;" horiz-adv-x="1681" d="M160 -27h205v224h-205v-224zM698 -27h205v224h-205v-224zM1239 -27h205v224h-205v-224z" />
<glyph unicode="&#x202f;" horiz-adv-x="372" />
<glyph unicode="&#x2039;" horiz-adv-x="559" d="M47 524l250 -461h170l-213 465l211 461h-164z" />
<glyph unicode="&#x203a;" horiz-adv-x="559" d="M39 68h166l241 467l-241 454h-166l211 -461z" />
<glyph unicode="&#x205f;" horiz-adv-x="465" />
<glyph unicode="&#x2122;" horiz-adv-x="1681" d="M147 1346h207v-689h154v689h207v147h-568v-147zM743 659h150v469l117 -469h155l107 441v-432h151v825h-198l-138 -569l-143 569h-201v-834z" />
<glyph unicode="&#x25fc;" horiz-adv-x="1095" d="M0 0v1096h1096v-1096h-1096z" />
</font>
</defs>
</svg>
